<svg xmlns="http://www.w3.org/2000/svg" xmlns:xlink="http://www.w3.org/1999/xlink" xmlns:lucid="lucid" width="1180" height="1160.5"><g transform="translate(-339.99999999999943 -139)" lucid:page-tab-id="jf5qVqr0O6uW"><path d="M360 168c0-4.42 3.58-8 8-8h784c4.42 0 8 3.58 8 8v804c0 4.42-3.58 8-8 8H368c-4.42 0-8-3.58-8-8z" fill-opacity="0"/><path d="M364.07 161.18l.82-.55 3.1-.63h5.03m5.02 0h10.05m5.03 0h10.05m5.03 0h10.06m5.02 0h10.05m5.03 0h10.05m5.04 0h10.05m5 0h10.06m5.03 0h10.04m5.03 0h10.05m5.02 0h10.05m5.02 0h10.05m5.03 0h10.05m5.02 0h10.06m5.02 0h10.05m5.03 0h10.05m5.03 0h10.06m5.02 0h10.05m5.03 0h10.05m5.04 0h10.05m5 0h10.06m5.03 0h10.04m5.03 0h10.05m5.02 0h10.05m5.02 0h10.05m5.03 0h10.05m5.02 0h10.06m5.02 0h10.05m5.03 0h10.05m5.03 0h10.06m5.02 0h10.05m5.03 0h10.05m5.04 0h10.05m5 0h10.06m5.03 0h10.04m5.03 0h10.05m5.02 0h10.05m5.02 0h10.05m5.03 0h10.05m5.02 0h10.06m5.02 0h10.05m5.03 0h10.05m5.03 0h10.06m5.02 0h10.05m5.03 0h10.05m5.04 0h10.05m5 0h10.06m5.03 0h10.04m5.03 0h10.05m5.02 0h10.05m5.02 0h10.05m5.03 0h10.05m5.02 0h5.03l3.1.63.83.55m2.9 2.9l.54.8.63 3.12v4.96m0 4.97v9.92m0 4.96v9.94m0 4.96v9.93m0 4.96v9.92m0 4.96v9.93m0 4.97v9.93m0 4.96v9.93m0 4.95v9.92m0 4.97v9.92m0 4.97v9.92m0 4.96v9.94m0 4.96v9.93m0 4.96v9.92m0 4.96v9.93m0 4.97v9.93m0 4.96v9.93m0 4.95v9.92m0 4.97v9.92m0 4.97v9.92m0 4.96v9.94m0 4.96v9.93m0 4.96v9.92m0 4.96v9.93m0 4.97v9.93m0 4.96v9.93m0 4.95v9.92m0 4.97v9.92m0 4.97v9.92m0 4.96v9.94m0 4.96v9.93m0 4.96v9.92m0 4.96v9.93m0 4.97v9.93m0 4.96v9.93m0 4.95v9.92m0 4.97v9.92m0 4.97v9.92m0 4.96v9.94m0 4.96v9.93m0 4.96v9.92m0 4.96v9.93m0 4.97v9.93m0 4.96v9.93m0 4.95v9.92m0 4.97v9.92m0 4.97v9.92m0 4.96v9.94m0 4.96v9.93m0 4.96v9.92m0 4.96v9.93m0 4.97v9.93m0 4.96v9.93m0 4.95v9.92m0 4.97V972l-.63 3.1-.55.83m-2.9 2.9l-.8.54-3.12.63h-5.03m-5.02 0h-10.05m-5.03 0h-10.05m-5.03 0h-10.06m-5.02 0h-10.05m-5.03 0h-10.05m-5.04 0h-10.05m-5 0h-10.06m-5.03 0h-10.04m-5.03 0h-10.05m-5.02 0H996.2m-5.02 0h-10.05m-5.03 0h-10.05m-5.02 0h-10.06m-5.02 0H935.9m-5.03 0h-10.05m-5.03 0h-10.06m-5.02 0h-10.05m-5.03 0H875.6m-5.04 0H860.5m-5 0h-10.06m-5.03 0h-10.04m-5.03 0h-10.05m-5.02 0H800.2m-5.02 0h-10.05m-5.03 0h-10.05m-5.02 0h-10.06m-5.02 0H739.9m-5.03 0h-10.05m-5.03 0h-10.06m-5.02 0h-10.05m-5.03 0H679.6m-5.04 0H664.5m-5 0h-10.06m-5.03 0h-10.04m-5.03 0h-10.05m-5.02 0H604.2m-5.02 0h-10.05m-5.03 0h-10.05m-5.02 0h-10.06m-5.02 0H543.9m-5.03 0h-10.05m-5.03 0h-10.06m-5.02 0h-10.05m-5.03 0H483.6m-5.04 0H468.5m-5 0h-10.06m-5.03 0h-10.04m-5.03 0h-10.05m-5.02 0H408.2m-5.02 0h-10.05m-5.03 0h-10.05m-5.02 0H368l-3.1-.63-.83-.55m-2.9-2.9l-.54-.8L360 972v-4.96m0-4.97v-9.92m0-4.96v-9.94m0-4.96v-9.93m0-4.96v-9.92m0-4.96v-9.93m0-4.97v-9.93m0-4.96v-9.93m0-4.95v-9.92m0-4.97v-9.92m0-4.97v-9.92m0-4.96v-9.94m0-4.96v-9.93m0-4.96v-9.92m0-4.96v-9.93m0-4.97v-9.93m0-4.96v-9.93m0-4.95v-9.92m0-4.97v-9.92m0-4.97v-9.92m0-4.96v-9.94m0-4.96v-9.93m0-4.96v-9.92m0-4.96v-9.93m0-4.97v-9.93m0-4.96v-9.93m0-4.95v-9.92m0-4.97v-9.92m0-4.97v-9.92m0-4.96v-9.94m0-4.96v-9.93m0-4.96v-9.92m0-4.96v-9.93m0-4.97v-9.93m0-4.96v-9.93m0-4.95v-9.92m0-4.97v-9.92m0-4.97v-9.92m0-4.96v-9.94m0-4.96v-9.93m0-4.96v-9.92m0-4.96v-9.93m0-4.97v-9.93m0-4.96v-9.93m0-4.95v-9.92m0-4.97v-9.92m0-4.97v-9.92m0-4.96v-9.94m0-4.96v-9.93m0-4.96v-9.92m0-4.96v-9.93m0-4.97v-9.93m0-4.96v-9.93m0-4.95v-9.92m0-4.97V168l.63-3.1.55-.83" stroke="#000" fill="none"/><use xlink:href="#a" transform="matrix(1,0,0,1,360,160) translate(666.1574074074074 19.73333333333333)"/><path d="M1200 160h300v240h-300z" stroke="#000" stroke-width="2" fill-opacity="0"/><use xlink:href="#b" transform="matrix(1,0,0,1,1203.2,163.2) translate(0 17.955555555555552)"/><path d="M1218.94 908c0-4.42 3.58-8 8-8h184c4.42 0 8 3.58 8 8v363.5c0 4.42-3.58 8-8 8h-184c-4.42 0-8-3.58-8-8z" stroke="#c92d39" stroke-width="3" fill-opacity="0"/><use xlink:href="#c" transform="matrix(1,0,0,1,1218.9368888888891,900.00058499415) translate(6.01 370.15730915555554)"/><use xlink:href="#d" transform="matrix(1,0,0,1,1218.9368888888891,900.00058499415) translate(60.68716049382714 370.15730915555554)"/><path d="M780 1067.57c0-4.42 3.58-8 8-8h364c4.42 0 8 3.58 8 8v203.93c0 4.42-3.58 8-8 8H788c-4.42 0-8-3.58-8-8z" fill-opacity="0"/><path d="M784.07 1060.75l.82-.55 3.1-.63h5.06m5.05 0h10.12m5.06 0h10.1m5.06 0h10.12m5.05 0h10.12m5.06 0h10.1m5.06 0h10.12m5.05 0h10.12m5.06 0h10.1m5.06 0h10.12m5.05 0h10.12m5.06 0h10.1m5.06 0h10.12m5.05 0h10.12m5.06 0h10.1m5.06 0h10.12m5.05 0h10.12m5.06 0h10.1m5.06 0h10.12m5.05 0h10.12m5.06 0h10.1m5.06 0h10.12m5.05 0h10.12m5.06 0h10.1m5.06 0h5.06l3.1.63.83.55m2.9 2.9l.54.8.63 3.12v4.85m0 4.86v9.7m0 4.86v9.72m0 4.85v9.72m0 4.86v9.7m0 4.86v9.72m0 4.85v9.72m0 4.86v9.7m0 4.86v9.72m0 4.85v9.72m0 4.86v9.7m0 4.86v9.72m0 4.85v9.72m0 4.86v9.7m0 4.86v4.86l-.63 3.1-.55.83m-2.9 2.9l-.8.54-3.12.63h-5.06m-5.05 0h-10.12m-5.06 0h-10.1m-5.06 0h-10.12m-5.05 0h-10.12m-5.06 0h-10.1m-5.06 0h-10.12m-5.05 0h-10.12m-5.06 0h-10.1m-5.06 0h-10.12m-5.05 0h-10.12m-5.06 0h-10.1m-5.06 0h-10.12m-5.05 0h-10.12m-5.06 0h-10.1m-5.06 0h-10.12m-5.05 0h-10.12m-5.06 0h-10.1m-5.06 0h-10.12m-5.05 0h-10.12m-5.06 0h-10.1m-5.06 0h-10.12m-5.05 0h-10.12m-5.06 0h-10.1m-5.06 0H788l-3.1-.63-.83-.55m-2.9-2.9l-.54-.8-.63-3.12v-4.86m0-4.85v-9.72m0-4.86v-9.7m0-4.86v-9.72m0-4.85v-9.72m0-4.86v-9.7m0-4.86v-9.72m0-4.85v-9.72m0-4.86v-9.7m0-4.86v-9.72m0-4.85v-9.72m0-4.86v-9.7m0-4.86v-9.72m0-4.85v-9.72m0-4.86v-4.85l.63-3.12.55-.8" stroke="#000" fill="none"/><use xlink:href="#e" transform="matrix(1,0,0,1,779.9999999999994,1059.5666666666666) translate(186.84320987654326 17.955555555555552)"/><use xlink:href="#f" transform="matrix(1,0,0,1,779.9999999999994,1059.5666666666666) translate(295.20000000000005 17.955555555555552)"/><path d="M360 1067.57c0-4.42 3.58-8 8-8h364c4.42 0 8 3.58 8 8v203.93c0 4.42-3.58 8-8 8H368c-4.42 0-8-3.58-8-8z" fill-opacity="0"/><path d="M364.07 1060.75l.82-.55 3.1-.63h5.06m5.05 0h10.12m5.06 0h10.1m5.06 0h10.12m5.05 0h10.12m5.06 0h10.1m5.06 0h10.12m5.05 0h10.12m5.06 0h10.1m5.06 0h10.12m5.05 0h10.12m5.06 0h10.1m5.06 0h10.12m5.05 0h10.12m5.06 0h10.1m5.06 0h10.12m5.05 0h10.12m5.06 0h10.1m5.06 0h10.12m5.05 0h10.12m5.06 0h10.1m5.06 0h10.12m5.05 0h10.12m5.06 0h10.1m5.06 0H732l3.1.63.83.55m2.9 2.9l.54.8.63 3.12v4.85m0 4.86v9.7m0 4.86v9.72m0 4.85v9.72m0 4.86v9.7m0 4.86v9.72m0 4.85v9.72m0 4.86v9.7m0 4.86v9.72m0 4.85v9.72m0 4.86v9.7m0 4.86v9.72m0 4.85v9.72m0 4.86v9.7m0 4.86v4.86l-.63 3.1-.55.83m-2.9 2.9l-.8.54-3.12.63h-5.06m-5.05 0h-10.12m-5.06 0h-10.1m-5.06 0h-10.12m-5.05 0h-10.12m-5.06 0h-10.1m-5.06 0h-10.12m-5.05 0h-10.12m-5.06 0h-10.1m-5.06 0h-10.12m-5.05 0h-10.12m-5.06 0h-10.1m-5.06 0h-10.12m-5.05 0h-10.12m-5.06 0h-10.1m-5.06 0h-10.12m-5.05 0h-10.12m-5.06 0h-10.1m-5.06 0h-10.12m-5.05 0h-10.12m-5.06 0h-10.1m-5.06 0h-10.12m-5.05 0h-10.12m-5.06 0h-10.1m-5.06 0H368l-3.1-.63-.83-.55m-2.9-2.9l-.54-.8-.63-3.12v-4.86m0-4.85v-9.72m0-4.86v-9.7m0-4.86v-9.72m0-4.85v-9.72m0-4.86v-9.7m0-4.86v-9.72m0-4.85v-9.72m0-4.86v-9.7m0-4.86v-9.72m0-4.85v-9.72m0-4.86v-9.7m0-4.86v-9.72m0-4.85v-9.72m0-4.86v-4.85l.63-3.12.55-.8" stroke="#000" fill="none"/><use xlink:href="#g" transform="matrix(1,0,0,1,359.99999999999943,1059.5666666666666) translate(268.8277777777778 17.955555555555552)"/><path d="M775.63 200c-6.63 0-12 5.37-12 12v36c0 6.63 5.37 12 12 12H908c6.63 0 12-5.37 12-12v-36c0-6.63-5.37-12-12-12z" stroke="#ef8d22" stroke-width="2" fill="#009985"/><use xlink:href="#h" transform="matrix(1,0,0,1,771.6305795971098,208) translate(0.027777777777771462 19.2)"/><use xlink:href="#i" transform="matrix(1,0,0,1,771.6305795971098,208) translate(77.69444444444444 19.2)"/><use xlink:href="#j" transform="matrix(1,0,0,1,771.6305795971098,208) translate(88.80555555555556 19.2)"/><use xlink:href="#k" transform="matrix(1,0,0,1,771.6305795971098,208) translate(13.416666666666671 43.2)"/><use xlink:href="#l" transform="matrix(1,0,0,1,771.6305795971098,208) translate(62.13888888888889 43.2)"/><path d="M913.07 600c-6.63 0-12 5.37-12 12v36c0 6.63 5.37 12 12 12H1048c6.63 0 12-5.37 12-12v-36c0-6.63-5.37-12-12-12z" stroke="#000" fill="#009985"/><use xlink:href="#m" transform="matrix(1,0,0,1,909.0666666666667,608) translate(7.722222222222221 16)"/><use xlink:href="#n" transform="matrix(1,0,0,1,909.0666666666667,608) translate(91.94444444444446 16)"/><use xlink:href="#o" transform="matrix(1,0,0,1,909.0666666666667,608) translate(9.416666666666657 40)"/><use xlink:href="#p" transform="matrix(1,0,0,1,909.0666666666667,608) translate(44.8611111111111 40)"/><path d="M909.07 679.5c-4.42 0-8 3.58-8 8v24c0 4.42 3.58 8 8 8H1052c4.42 0 8-3.58 8-8v-24c0-4.42-3.58-8-8-8z" stroke="#000" fill="#009985"/><use xlink:href="#q" transform="matrix(1,0,0,1,909.0666666666667,687.4994150058499) translate(34.53703703703703 17.422222222222224)"/><use xlink:href="#r" transform="matrix(1,0,0,1,909.0666666666667,687.4994150058499) translate(90.73456790123457 17.422222222222224)"/><path d="M980.53 661v1.62" stroke="#000" fill="none"/><path d="M981.03 661h-1v-.5h1z"/><path d="M980.53 677.38l-4.63-14.26h9.27z" stroke="#000"/><path d="M913.07 740c-6.63 0-12 5.37-12 12v36c0 6.63 5.37 12 12 12H1048c6.63 0 12-5.37 12-12v-36c0-6.63-5.37-12-12-12z" stroke="#000" fill="#3aa6dd"/><use xlink:href="#s" transform="matrix(1,0,0,1,909.0666666666667,748) translate(18.22222222222222 19.2)"/><use xlink:href="#n" transform="matrix(1,0,0,1,909.0666666666667,748) translate(81.44444444444446 19.2)"/><use xlink:href="#t" transform="matrix(1,0,0,1,909.0666666666667,748) translate(28.77777777777777 43.2)"/><path d="M980.53 720.5v2.62" stroke="#000" fill="none"/><path d="M981.03 720.5h-1v-.5h1z"/><path d="M980.53 737.88l-4.63-14.26h9.27z" stroke="#000"/><path d="M910.13 820c-4.42 0-8 3.58-8 8v24c0 4.42 3.58 8 8 8H1052c4.42 0 8-3.58 8-8v-24c0-4.42-3.58-8-8-8z" stroke="#000" fill="#009985"/><use xlink:href="#u" transform="matrix(1,0,0,1,910.1262222222218,828) translate(32.916666666666664 19.2)"/><use xlink:href="#v" transform="matrix(1,0,0,1,910.1262222222218,828) translate(89.13888888888889 19.2)"/><path d="M1270.94 973.88c-6.63 0-12 5.37-12 12v36c0 6.62 5.37 12 12 12h123.65c6.62 0 12-5.38 12-12v-36c0-6.63-5.38-12-12-12z" stroke="#000" fill="#009985"/><use xlink:href="#w" transform="matrix(1,0,0,1,1266.9368888888891,981.875) translate(16.58333333333333 27.6)"/><path d="M852 480c-6.63 0-12 5.37-12 12v36c0 6.63 5.37 12 12 12h96c6.63 0 12-5.37 12-12v-36c0-6.63-5.37-12-12-12z" stroke="#000" fill="#ef8d22"/><use xlink:href="#x" transform="matrix(1,0,0,1,848,488) translate(24.833333333333336 19.2)"/><use xlink:href="#y" transform="matrix(1,0,0,1,848,488) translate(1.5277777777777715 43.2)"/><path d="M622.02 360.28c-6.62 0-12 5.37-12 12v36c0 6.62 5.38 12 12 12H754.4c6.62 0 12-5.38 12-12v-36c0-6.63-5.38-12-12-12z" stroke="#000" fill="#3aa6dd"/><use xlink:href="#h" transform="matrix(1,0,0,1,618.0241512784269,368.27522253809593) translate(0.027777777777771462 19.2)"/><use xlink:href="#i" transform="matrix(1,0,0,1,618.0241512784269,368.27522253809593) translate(77.69444444444444 19.2)"/><use xlink:href="#j" transform="matrix(1,0,0,1,618.0241512784269,368.27522253809593) translate(88.80555555555556 19.2)"/><use xlink:href="#z" transform="matrix(1,0,0,1,618.0241512784269,368.27522253809593) translate(30.55555555555555 43.2)"/><path d="M920 440h100v40H920z" fill="#fff" fill-opacity="0"/><use xlink:href="#A" transform="matrix(1,0,0,1,920.0000000000002,440) translate(0 15.644444444444446)"/><use xlink:href="#B" transform="matrix(1,0,0,1,920.0000000000002,440) translate(49.17283950617284 15.644444444444446)"/><use xlink:href="#C" transform="matrix(1,0,0,1,920.0000000000002,440) translate(0 34.31111111111112)"/><path d="M740 421.28v16.86c0 6.63 5.37 12 12 12h136c6.63 0 12 5.37 12 12v.98" stroke="#000" fill="none"/><path d="M740.5 421.3h-1v-.52h1z"/><path d="M900 477.88l-4.64-14.26h9.28z" stroke="#000"/><path d="M980.53 801v2.65" stroke="#000" fill="none"/><path d="M981.03 801h-1v-.5h1z"/><path d="M981 817.88l-5.1-14.1 9.27-.3z" stroke="#000"/><path d="M981.06 861v43.94c0 6.62 5.38 12 12 12h327.1c6.62 0 12 5.37 12 12V957" stroke="#000" fill="none"/><path d="M981.56 861h-1v-.5h1z"/><path d="M1332.15 971.76l-4.64-14.27h9.28z" stroke="#000"/><path d="M512 200c-6.63 0-12 5.37-12 12v36c0 6.63 5.37 12 12 12h136c6.63 0 12-5.37 12-12v-36c0-6.63-5.37-12-12-12z" stroke="#ef8d22" stroke-width="2" fill="#009985"/><use xlink:href="#D" transform="matrix(1,0,0,1,508,208) translate(27.05555555555555 19.2)"/><use xlink:href="#E" transform="matrix(1,0,0,1,508,208) translate(101.44444444444446 19.2)"/><use xlink:href="#F" transform="matrix(1,0,0,1,508,208) translate(1.5277777777777715 43.2)"/><use xlink:href="#i" transform="matrix(1,0,0,1,508,208) translate(79.19444444444444 43.2)"/><use xlink:href="#G" transform="matrix(1,0,0,1,508,208) translate(90.30555555555556 43.2)"/><path d="M580 261.5V298c0 6.63 5.37 12 12 12h30.56c6.63 0 12 5.37 12 12v21.4" stroke="#000" fill="none"/><path d="M580.5 261.5h-1v-.5h1z"/><path d="M634.56 358.16l-4.63-14.27h9.27z" stroke="#000"/><path d="M452 480c-6.63 0-12 5.37-12 12v36c0 6.63 5.37 12 12 12h96c6.63 0 12-5.37 12-12v-36c0-6.63-5.37-12-12-12z" stroke="#000" fill="#ef8d22"/><use xlink:href="#H" transform="matrix(1,0,0,1,448,488) translate(17.58333333333333 19.2)"/><use xlink:href="#I" transform="matrix(1,0,0,1,448,488) translate(34.27777777777778 43.2)"/><path d="M635.86 421.28v16.86c0 6.63-5.37 12-12 12H512c-6.63 0-12 5.37-12 12V479" stroke="#000" fill="none"/><path d="M636.36 421.3h-1v-.52h1zM500.5 479.5h-1v-.5h1z"/><path d="M1332.77 1034.38" stroke="#00c2a8" fill="none"/><path fill="#00c2a8"/><path fill="#00c2a8"/><path d="M573.07 880c-6.63 0-12 5.37-12 12v36c0 6.63 5.37 12 12 12H708c6.63 0 12-5.37 12-12v-36c0-6.63-5.37-12-12-12z" stroke="#000" fill="#009985"/><use xlink:href="#J" transform="matrix(1,0,0,1,569.0666666666666,888) translate(45.80555555555555 19.2)"/><use xlink:href="#K" transform="matrix(1,0,0,1,569.0666666666666,888) translate(23.194444444444443 43.2)"/><path d="M400 440h100v40H400z" fill="#fff" fill-opacity="0"/><use xlink:href="#A" transform="matrix(1,0,0,1,400,440) translate(0 15.644444444444446)"/><use xlink:href="#B" transform="matrix(1,0,0,1,400,440) translate(49.17283950617284 15.644444444444446)"/><use xlink:href="#C" transform="matrix(1,0,0,1,400,440) translate(0 34.31111111111112)"/><path d="M740 421.28V524.4" stroke="#000" fill="none"/><path d="M740.5 421.3h-1v-.52h1z"/><path d="M740 539.18l-4.64-14.27h9.28z" stroke="#000"/><path d="M734.34 545.16c3.13-3.13 8.2-3.13 11.32 0l8.68 8.68c3.13 3.13 3.13 8.2 0 11.32l-8.68 8.68c-3.13 3.13-8.2 3.13-11.32 0l-8.68-8.68c-3.13-3.13-3.13-8.2 0-11.32z" stroke="#009985" stroke-width="4" fill="#fff"/><path d="M663.75 560h-11.72l-3 .4-2.77 1.14-2.4 1.83-1.82 2.4-1.14 2.75-.4 3v11.6h-1v-11.65l.42-3.2 1.24-3 2-2.6 2.6-2 3-1.25 3.2-.42h11.8zm57.05 0h-16.1v-1h16.1z"/><path d="M721.3 559.5l.06.5h-.58v-1h.58zM640 597.88l-4.64-14.26h9.28z"/><path d="M640 599.5l-5.32-16.38h10.64zm-3.95-15.38l3.95 12.14 3.95-12.14z"/><use xlink:href="#L" transform="matrix(1,0,0,1,663.7466106716981,548.6994150058499) translate(0.004999999999999005 14.4)"/><path d="M572 600c-6.63 0-12 5.37-12 12v36c0 6.63 5.37 12 12 12h136c6.63 0 12-5.37 12-12v-36c0-6.63-5.37-12-12-12z" stroke="#000" fill="#009985"/><use xlink:href="#m" transform="matrix(1,0,0,1,568.0000000000002,608) translate(8.222222222222221 16)"/><use xlink:href="#n" transform="matrix(1,0,0,1,568.0000000000002,608) translate(92.44444444444446 16)"/><use xlink:href="#o" transform="matrix(1,0,0,1,568.0000000000002,608) translate(28.22222222222222 40)"/><use xlink:href="#M" transform="matrix(1,0,0,1,568.0000000000002,608) translate(63.666666666666664 40)"/><path d="M567.9 680c-4.36 0-7.9 3.54-7.9 7.9v23.7c0 4.36 3.54 7.9 7.9 7.9h144.2c4.36 0 7.9-3.54 7.9-7.9v-23.7c0-4.36-3.54-7.9-7.9-7.9z" stroke="#000" fill="#009985"/><use xlink:href="#s" transform="matrix(1,0,0,1,568,688) translate(30.916666666666664 19.2)"/><use xlink:href="#v" transform="matrix(1,0,0,1,568,688) translate(94.13888888888889 19.2)"/><path d="M572 740c-6.63 0-12 5.37-12 12v36c0 6.63 5.37 12 12 12h136c6.63 0 12-5.37 12-12v-36c0-6.63-5.37-12-12-12z" stroke="#000" fill="#3aa6dd"/><use xlink:href="#s" transform="matrix(1,0,0,1,568,748) translate(19.22222222222222 19.2)"/><use xlink:href="#n" transform="matrix(1,0,0,1,568,748) translate(82.44444444444446 19.2)"/><use xlink:href="#t" transform="matrix(1,0,0,1,568,748) translate(29.77777777777777 43.2)"/><path d="M640 720.5v2.62" stroke="#000" fill="none"/><path d="M640.5 720.5h-1v-.5h1z"/><path d="M640 737.88l-4.64-14.26h9.28z" stroke="#000"/><path d="M569.17 820c-4.48 0-8.1 3.63-8.1 8.1v24.3c0 4.47 3.62 8.1 8.1 8.1H711.9c4.47 0 8.1-3.63 8.1-8.1v-24.3c0-4.47-3.63-8.1-8.1-8.1z" stroke="#000" fill="#009985"/><use xlink:href="#u" transform="matrix(1,0,0,1,569.0666666666666,828) translate(33.416666666666664 19.2)"/><use xlink:href="#v" transform="matrix(1,0,0,1,569.0666666666666,828) translate(89.63888888888889 19.2)"/><path d="M640 801v2.65" stroke="#000" fill="none"/><path d="M640.5 801h-1v-.5h1z"/><path d="M640.48 817.88l-5.1-14.1 9.25-.3z" stroke="#000"/><path d="M640 661v2.12" stroke="#000" fill="none"/><path d="M640.5 661h-1v-.5h1z"/><path d="M640 677.88l-4.64-14.26h9.28z" stroke="#000"/><path d="M640.53 861.5v1.62" stroke="#000" fill="none"/><path d="M641.03 861.5h-1v-.5h1z"/><path d="M640.53 877.88l-4.63-14.26h9.27z" stroke="#000"/><path d="M392 600c-6.63 0-12 5.37-12 12v36c0 6.63 5.37 12 12 12h96c6.63 0 12-5.37 12-12v-36c0-6.63-5.37-12-12-12z" stroke="#000" fill="#ffdba9"/><use xlink:href="#N" transform="matrix(1,0,0,1,388.00000000000006,608) translate(4.749999999999993 16)"/><use xlink:href="#O" transform="matrix(1,0,0,1,388.00000000000006,608) translate(10.861111111111107 40)"/><path d="M392 1079.5c-6.63 0-12 5.37-12 12v36c0 6.63 5.37 12 12 12h96c6.63 0 12-5.37 12-12v-36c0-6.63-5.37-12-12-12z" stroke="#000" fill="#3aa6dd"/><use xlink:href="#P" transform="matrix(1,0,0,1,388.0000000000001,1087.5) translate(8.694444444444443 19.2)"/><use xlink:href="#Q" transform="matrix(1,0,0,1,388.0000000000001,1087.5) translate(26.80555555555555 43.2)"/><path d="M385.44 1179.3v-2.73c0-1.5 1.2-2.7 2.7-2.7H492c4.42 0 8 3.6 8 8v38.22c0 1.5-1.22 2.7-2.72 2.7h-2.7-.02v-35.49c0-4.4-3.58-8-8-8H385.44z" stroke="#000" fill="#ffdba9"/><path d="M380 1187.3c0-4.4 3.58-8 8-8h98.56c4.42 0 8 3.6 8 8v32.95c0 4.42-3.58 8-8 8H388c-4.42 0-8-3.58-8-8z" stroke="#000" fill="#ffdba9"/><use xlink:href="#R" transform="matrix(1,0,0,1,380.0000000000001,1179.3125) translate(10.999444444444444 16.177777777777777)"/><use xlink:href="#S" transform="matrix(1,0,0,1,380.0000000000001,1179.3125) translate(22.795740740740733 40.44444444444444)"/><path d="M440 661v401.62" stroke="#000" fill="none"/><path d="M440.5 661h-1v-.5h1z"/><path d="M440 1077.38l-4.64-14.26h9.28z" stroke="#000"/><path d="M550.87 1173.88c-6 0-10.87 4.86-10.87 10.87v32.63c0 6 4.87 10.87 10.87 10.87h137.2c6 0 10.86-4.87 10.86-10.88v-32.62c0-6-4.87-10.88-10.87-10.88z" stroke="#000" fill="#3aa6dd"/><use xlink:href="#T" transform="matrix(1,0,0,1,547.9999999999994,1181.875) translate(11.611111111111107 23.5)"/><use xlink:href="#U" transform="matrix(1,0,0,1,547.9999999999994,1181.875) translate(73.72222222222223 23.5)"/><path d="M805.4 1144.9v-.02V1142.18c0-1.48 1.2-2.68 2.7-2.68H925.1c4.42 0 8 3.58 8 8v37.97c0 1.5-1.2 2.7-2.7 2.7h-2.68s-.02 0-.02-.02V1152.9c0-4.4-3.58-8-8-8h-114.3z" stroke="#000" fill="#ffdba9"/><path d="M800 1152.9c0-4.4 3.58-8 8-8h111.72c4.42 0 8 3.6 8 8v32.68c0 4.42-3.58 8-8 8H808c-4.42 0-8-3.58-8-8z" stroke="#000" fill="#ffdba9"/><use xlink:href="#V" transform="matrix(1,0,0,1,799.9999999999994,1144.908203125) translate(24.712098765432096 16.177777777777777)"/><use xlink:href="#S" transform="matrix(1,0,0,1,799.9999999999994,1144.908203125) translate(29.795740740740733 40.44444444444444)"/><path d="M990.25 1140.9c-5.66 0-10.25 4.6-10.25 10.26v30.76c0 5.66 4.6 10.26 10.25 10.26h99.5c5.66 0 10.25-4.6 10.25-10.26v-30.76c0-5.66-4.6-10.25-10.25-10.25z" stroke="#000" fill="#3aa6dd"/><use xlink:href="#W" transform="matrix(1,0,0,1,987.9999999999995,1148.90625) translate(20.94444444444445 22)"/><path d="M501 1201.06h22.12" stroke="#000" fill="none"/><path d="M501 1201.56h-.5v-1h.5z"/><path d="M537.88 1201.06l-14.26 4.64v-9.27z" stroke="#000"/><path d="M663.75 560H452.03l-3 .4-2.77 1.14-2.4 1.83-1.82 2.4-1.14 2.75-.4 3v11.6h-1v-11.65l.42-3.2 1.24-3 2-2.6 2.6-2 3-1.25 3.2-.42h211.8zm57.05 0h-16.1v-1h16.1z"/><path d="M721.3 559.5l.06.5h-.58v-1h.58zM440 597.88l-4.64-14.26h9.28z"/><path d="M440 599.5l-5.32-16.38h10.64zm-3.95-15.38l3.95 12.14 3.95-12.14zM971.78 559.42l3 1.24 2.6 2 2 2.6 1.23 3 .43 3.2v11.66h-1v-11.6l-.4-3-1.13-2.76-1.84-2.4-2.4-1.82-2.74-1.15-3.02-.4h-41.93v-1h42zM759.2 560v-1h93.47v1z"/><path d="M759.22 560h-.58l.06-.5-.06-.5h.58zM980.53 597.88l-4.63-14.26h9.27z"/><path d="M980.53 599.5l-5.32-16.38h10.66zm-3.94-15.38l3.93 12.14 3.95-12.14z"/><use xlink:href="#X" transform="matrix(1,0,0,1,852.6687006796589,548.6994150058499) translate(0.005000000000002558 14.4)"/><path d="M640.53 941v48.85c0 6.16-5 11.15-11.15 11.15s-11.15 5-11.15 11.15V1157" stroke="#000" fill="none"/><path d="M641.03 941h-1v-.5h1z"/><path d="M618.23 1171.76l-4.63-14.27h9.27z" stroke="#000"/><path d="M440 1140.5v16.5" stroke="#000" fill="none"/><path d="M440.5 1140.5h-1v-.5h1z"/><path d="M440 1171.76l-4.64-14.27h9.28z" stroke="#000"/><path d="M594 1172.88v-51.38c0-6.63-5.37-12-12-12h-65.12" stroke="#000" fill="none"/><path d="M594.5 1173.38h-1v-.52h1z"/><path d="M502.12 1109.5l14.26-4.64v9.28z" stroke="#000"/><path d="M440 1229.25v27.5c0 6.63 5.37 12 12 12h295.5c6.63 0 12-5.37 12-12v-78.2c0-6.64 5.37-12 12-12h11.62" stroke="#000" fill="none"/><path d="M440.5 1229.26h-1v-.5h1z"/><path d="M797.88 1166.54l-14.26 4.64v-9.27z" stroke="#000"/><path d="M934.12 1166.54h29" stroke="#000" fill="none"/><path d="M934.14 1167.04h-.5v-1h.5z"/><path d="M977.88 1166.54l-14.26 4.64v-9.27z" stroke="#000"/><path d="M1265 1062.3v-.04-3.02c0-1.66 1.33-3 3-3h130.6c4.4 0 8 3.58 8 8v43.47c0 1.68-1.36 3.04-3.03 3.04h-3c-.02 0-.03-.02-.03-.03v-40.41c0-4.42-3.58-8-8-8H1265z" stroke="#000" fill="#ffdba9"/><path d="M1258.94 1070.3c0-4.42 3.58-8 8-8h125.6c4.42 0 8 3.58 8 8v38.5c0 4.4-3.58 8-8 8h-125.6c-4.42 0-8-3.6-8-8z" stroke="#000" fill="#ffdba9"/><g><use xlink:href="#Y" transform="matrix(1,0,0,1,1258.9368888888891,1062.2947558122073) translate(36.32382716049383 19.377777777777776)"/><use xlink:href="#S" transform="matrix(1,0,0,1,1258.9368888888891,1062.2947558122073) translate(36.29574074074073 43.644444444444446)"/></g><path d="M1257.94 1003.88H1052c-6.63 0-12 5.37-12 12v108.14" stroke="#000" fill="none"/><path d="M1258.44 1004.38h-.52v-1h.52z"/><path d="M1040 1138.8l-4.64-14.28h9.28z" stroke="#000"/><path d="M1101 1166.54h5.94c6.62 0 12-5.37 12-12v-56.02c0-6.63 5.37-12 12-12h111.1" stroke="#000" fill="none"/><path d="M1101 1167.04h-.5v-1h.5z"/><path d="M1256.82 1086.52l-14.27 4.63v-9.27z" stroke="#000"/><path d="M1269.8 1139.35c-6 0-10.86 4.87-10.86 10.88v32.62c0 6 4.87 10.88 10.87 10.88h125.92c6 0 10.87-4.87 10.87-10.88v-32.62c0-6-4.88-10.88-10.88-10.88z" stroke="#000" fill="#ffdba9"/><g><use xlink:href="#Z" transform="matrix(1,0,0,1,1266.9368888888891,1147.353515625) translate(29.388888888888886 16)"/><use xlink:href="#aa" transform="matrix(1,0,0,1,1266.9368888888891,1147.353515625) translate(5.05555555555555 40)"/><use xlink:href="#ab" transform="matrix(1,0,0,1,1266.9368888888891,1147.353515625) translate(63.833333333333336 40)"/></g><path d="M1101 1166.54h141.05" stroke="#000" fill="none"/><path d="M1101 1167.04h-.5v-1h.5z"/><path d="M1256.82 1166.54l-14.27 4.64v-9.27z" stroke="#000"/><path d="M841.82 261.5v36.9c0 6.62-5.38 12-12 12h-77.4c-6.62 0-12 5.36-12 12v21" stroke="#000" fill="none"/><path d="M842.32 261.5h-1v-.5h1z"/><path d="M740.43 358.16l-4.64-14.27h9.26z" stroke="#000"/><path d="M1244 240c-2.2 0-4 1.8-4 4v12c0 2.2 1.8 4 4 4h12c2.2 0 4-1.8 4-4v-12c0-2.2-1.8-4-4-4z" stroke="#000" stroke-width="2" fill="#009985"/><path d="M1280 248c0-4.42 3.58-8 8-8h164c4.42 0 8 3.58 8 8v4c0 4.42-3.58 8-8 8h-164c-4.42 0-8-3.58-8-8z" stroke="#000" stroke-opacity="0" fill="#fff" fill-opacity="0"/><g><use xlink:href="#ac" transform="matrix(1,0,0,1,1280,240) translate(26.367283950617292 16.177777777777777)"/><use xlink:href="#ad" transform="matrix(1,0,0,1,1280,240) translate(75.63086419753087 16.177777777777777)"/><use xlink:href="#ae" transform="matrix(1,0,0,1,1280,240) translate(136.1851851851852 16.177777777777777)"/></g><path d="M1244 200c-2.2 0-4 1.8-4 4v12c0 2.2 1.8 4 4 4h12c2.2 0 4-1.8 4-4v-12c0-2.2-1.8-4-4-4z" stroke="#ef8d22" stroke-width="2" fill="#009985"/><path d="M1260 208c0-4.42 3.58-8 8-8h184c4.42 0 8 3.58 8 8v4c0 4.42-3.58 8-8 8h-184c-4.42 0-8-3.58-8-8z" stroke="#000" stroke-opacity="0" fill="#fff" fill-opacity="0"/><g><use xlink:href="#ac" transform="matrix(1,0,0,1,1260,200) translate(9.405555555555566 16.177777777777777)"/><use xlink:href="#ad" transform="matrix(1,0,0,1,1260,200) translate(58.66913580246914 16.177777777777777)"/><use xlink:href="#af" transform="matrix(1,0,0,1,1260,200) translate(119.22345679012346 16.177777777777777)"/><use xlink:href="#ag" transform="matrix(1,0,0,1,1260,200) translate(160.679012345679 16.177777777777777)"/></g><path d="M1244 320c-2.2 0-4 1.8-4 4v12c0 2.2 1.8 4 4 4h12c2.2 0 4-1.8 4-4v-12c0-2.2-1.8-4-4-4z" stroke="#000" stroke-width="2" fill="#3aa6dd"/><path d="M1280 328c0-4.42 3.58-8 8-8h164c4.42 0 8 3.58 8 8v4c0 4.42-3.58 8-8 8h-164c-4.42 0-8-3.58-8-8z" stroke="#000" stroke-opacity="0" fill="#fff" fill-opacity="0"/><g><use xlink:href="#ah" transform="matrix(1,0,0,1,1280,320) translate(1.5950617283950805 16.177777777777777)"/><use xlink:href="#ai" transform="matrix(1,0,0,1,1280,320) translate(65.51975308641977 16.177777777777777)"/></g><path d="M1244 360c-2.2 0-4 1.8-4 4v12c0 2.2 1.8 4 4 4h12c2.2 0 4-1.8 4-4v-12c0-2.2-1.8-4-4-4z" stroke="#000" stroke-width="2" fill="#ffdba9"/><path d="M1280 368c0-4.42 3.58-8 8-8h164c4.42 0 8 3.58 8 8v4c0 4.42-3.58 8-8 8h-164c-4.42 0-8-3.58-8-8z" stroke="#000" stroke-opacity="0" fill="#fff" fill-opacity="0"/><g><use xlink:href="#aj" transform="matrix(1,0,0,1,1280,360) translate(49.90370370370371 16.177777777777777)"/></g><path d="M1244 280c-2.2 0-4 1.8-4 4v12c0 2.2 1.8 4 4 4h12c2.2 0 4-1.8 4-4v-12c0-2.2-1.8-4-4-4z" stroke="#000" stroke-width="2" fill="#ef8d22"/><path d="M1280 288c0-4.42 3.58-8 8-8h164c4.42 0 8 3.58 8 8v4c0 4.42-3.58 8-8 8h-164c-4.42 0-8-3.58-8-8z" stroke="#000" stroke-opacity="0" fill="#fff" fill-opacity="0"/><g><use xlink:href="#ac" transform="matrix(1,0,0,1,1280,280) translate(88.10123456790124 16.177777777777777)"/><use xlink:href="#ak" transform="matrix(1,0,0,1,1280,280) translate(137.36481481481482 16.177777777777777)"/></g><defs><path fill="#333" d="M125-24c46 0 70-25 89-51l25 16C214-24 183 4 123 4 8 4-5-146 60-208c32-50 158-61 191-5 5 7 9 14 11 22l-32 10c-9-28-33-43-69-43-74 0-108 51-108 125 0 46 24 75 72 75" id="al"/><path fill="#333" d="M30-147c31-64 166-65 159 27C183-49 158 1 86 4 9 8 1-88 30-147zM88-20c53 0 68-48 68-100 0-31-11-51-44-50-52 1-68 46-68 97 0 32 13 53 44 53" id="am"/><path fill="#333" d="M248-111c6-24 9-61-24-58-72 9-57 108-77 169h-31l26-142c3-37-50-30-64-10C52-115 50-51 37 0H6l36-190h30c-1 10-6 24-4 32 13-43 101-52 105 5 13-22 29-41 61-41 90 0 28 129 23 194h-31" id="an"/><path fill="#333" d="M67-162c32-53 139-36 121 50C175-51 163 2 97 4 68 4 52-11 42-31 38 6 28 39 22 75H-9l50-265h29c-1 10 0 20-3 28zm89 36c0-26-10-43-35-43-54 0-67 50-69 103-1 29 14 45 42 46 53 0 62-58 62-106" id="ao"/><path fill="#333" d="M50-231l6-30h32l-6 30H50zM6 0l37-190h31L37 0H6" id="ap"/><path fill="#333" d="M6 0l50-261h32L37 0H6" id="aq"/><path fill="#333" d="M165-48c-4 18 1 34 23 27l-3 20c-29 8-62 0-52-35h-2C116-14 99 4 63 4 30 4 8-16 8-49c0-68 71-67 138-67 10-26 0-56-31-54-26 1-42 9-47 31l-32-5c8-67 160-71 144 15-5 28-9 54-15 81zM42-50c3 52 80 24 89-6 7-12 7-24 11-38-47 1-103-4-100 44" id="ar"/><path fill="#333" d="M51-54c-9 22 5 41 31 30L79-1C43 14 10-4 19-52l22-115H19l5-23h22l19-43h21l-9 43h35l-4 23H73" id="as"/><path fill="#333" d="M67-158c22-48 132-52 116 29L158 0h-32l25-140c3-38-53-32-70-12C52-117 51-52 38 0H6l36-190h30" id="at"/><g id="a"><use transform="matrix(0.0685185185185185,0,0,0.0685185185185185,0,0)" xlink:href="#al"/><use transform="matrix(0.0685185185185185,0,0,0.0685185185185185,17.746296296296293,0)" xlink:href="#am"/><use transform="matrix(0.0685185185185185,0,0,0.0685185185185185,31.449999999999996,0)" xlink:href="#an"/><use transform="matrix(0.0685185185185185,0,0,0.0685185185185185,51.93703703703703,0)" xlink:href="#ao"/><use transform="matrix(0.0685185185185185,0,0,0.0685185185185185,65.64074074074072,0)" xlink:href="#ap"/><use transform="matrix(0.0685185185185185,0,0,0.0685185185185185,71.05370370370369,0)" xlink:href="#aq"/><use transform="matrix(0.0685185185185185,0,0,0.0685185185185185,76.46666666666665,0)" xlink:href="#ar"/><use transform="matrix(0.0685185185185185,0,0,0.0685185185185185,90.17037037037035,0)" xlink:href="#as"/><use transform="matrix(0.0685185185185185,0,0,0.0685185185185185,97.02222222222221,0)" xlink:href="#ap"/><use transform="matrix(0.0685185185185185,0,0,0.0685185185185185,102.43518518518516,0)" xlink:href="#am"/><use transform="matrix(0.0685185185185185,0,0,0.0685185185185185,116.13888888888886,0)" xlink:href="#at"/></g><path fill="#333" d="M30 0v-248h33v221h125V0H30" id="au"/><path fill="#333" d="M100-194c63 0 86 42 84 106H49c0 40 14 67 53 68 26 1 43-12 49-29l28 8c-11 28-37 45-77 45C44 4 14-33 15-96c1-61 26-98 85-98zm52 81c6-60-76-77-97-28-3 7-6 17-6 28h103" id="av"/><path fill="#333" d="M177-190C167-65 218 103 67 71c-23-6-38-20-44-43l32-5c15 47 100 32 89-28v-30C133-14 115 1 83 1 29 1 15-40 15-95c0-56 16-97 71-98 29-1 48 16 59 35 1-10 0-23 2-32h30zM94-22c36 0 50-32 50-73 0-42-14-75-50-75-39 0-46 34-46 75s6 73 46 73" id="aw"/><path fill="#333" d="M117-194c89-4 53 116 60 194h-32v-121c0-31-8-49-39-48C34-167 62-67 57 0H25l-1-190h30c1 10-1 24 2 32 11-22 29-35 61-36" id="ax"/><path fill="#333" d="M85-194c31 0 48 13 60 33l-1-100h32l1 261h-30c-2-10 0-23-3-31C134-8 116 4 85 4 32 4 16-35 15-94c0-66 23-100 70-100zm9 24c-40 0-46 34-46 75 0 40 6 74 45 74 42 0 51-32 51-76 0-42-9-74-50-73" id="ay"/><path fill="#333" d="M33-154v-36h34v36H33zM33 0v-36h34V0H33" id="az"/><g id="b"><use transform="matrix(0.06234567901234567,0,0,0.06234567901234567,0,0)" xlink:href="#au"/><use transform="matrix(0.06234567901234567,0,0,0.06234567901234567,12.469135802469133,0)" xlink:href="#av"/><use transform="matrix(0.06234567901234567,0,0,0.06234567901234567,24.938271604938265,0)" xlink:href="#aw"/><use transform="matrix(0.06234567901234567,0,0,0.06234567901234567,37.4074074074074,0)" xlink:href="#av"/><use transform="matrix(0.06234567901234567,0,0,0.06234567901234567,49.87654320987653,0)" xlink:href="#ax"/><use transform="matrix(0.06234567901234567,0,0,0.06234567901234567,62.34567901234566,0)" xlink:href="#ay"/><use transform="matrix(0.06234567901234567,0,0,0.06234567901234567,74.8148148148148,0)" xlink:href="#az"/></g><path fill="#c92d39" d="M87-220l-18 92h140l-5 28H64L45 0H11l48-248h178l-5 28H87" id="aA"/><path fill="#c92d39" d="M50-231l6-30h32l-6 30H50zM6 0l37-190h31L37 0H6" id="aB"/><path fill="#c92d39" d="M67-158c22-48 132-52 116 29L158 0h-32l25-140c3-38-53-32-70-12C52-117 51-52 38 0H6l36-190h30" id="aC"/><path fill="#c92d39" d="M165-48c-4 18 1 34 23 27l-3 20c-29 8-62 0-52-35h-2C116-14 99 4 63 4 30 4 8-16 8-49c0-68 71-67 138-67 10-26 0-56-31-54-26 1-42 9-47 31l-32-5c8-67 160-71 144 15-5 28-9 54-15 81zM42-50c3 52 80 24 89-6 7-12 7-24 11-38-47 1-103-4-100 44" id="aD"/><path fill="#c92d39" d="M6 0l50-261h32L37 0H6" id="aE"/><g id="c"><use transform="matrix(0.06234567901234567,0,0,0.06234567901234567,0,0)" xlink:href="#aA"/><use transform="matrix(0.06234567901234567,0,0,0.06234567901234567,13.653703703703702,0)" xlink:href="#aB"/><use transform="matrix(0.06234567901234567,0,0,0.06234567901234567,18.57901234567901,0)" xlink:href="#aC"/><use transform="matrix(0.06234567901234567,0,0,0.06234567901234567,31.048148148148144,0)" xlink:href="#aD"/><use transform="matrix(0.06234567901234567,0,0,0.06234567901234567,43.517283950617276,0)" xlink:href="#aE"/></g><path fill="#c92d39" d="M187 0l-14-72H61L19 0h-37l149-248h38L221 0h-34zm-19-99l-22-123L76-99h92" id="aF"/><path fill="#c92d39" d="M66-151c12-25 30-51 66-40l-6 26C45-176 58-65 38 0H6l36-190h30" id="aG"/><path fill="#c92d39" d="M51-54c-9 22 5 41 31 30L79-1C43 14 10-4 19-52l22-115H19l5-23h22l19-43h21l-9 43h35l-4 23H73" id="aH"/><path fill="#c92d39" d="M76-167L44 0H12l33-167H18l4-23h27c3-47 25-81 82-69l-4 24c-35-8-44 15-46 45h37l-5 23H76" id="aI"/><path fill="#c92d39" d="M44-68c0 29 11 47 38 47 30 0 42-19 51-41l28 9C148-21 126 4 82 4 31 4 10-29 12-85c3-77 74-140 146-93 12 8 15 23 18 40l-31 5c-1-22-13-36-36-36-52 0-65 49-65 101" id="aJ"/><path fill="#c92d39" d="M55-144c13 50 104 24 104 88C159 21 15 23 1-39l26-10c6 40 102 42 102-4-13-50-104-23-104-87 0-71 143-71 148-8l-29 4c-5-35-85-37-89 0" id="aK"/><g id="d"><use transform="matrix(0.06234567901234567,0,0,0.06234567901234567,0,0)" xlink:href="#aF"/><use transform="matrix(0.06234567901234567,0,0,0.06234567901234567,14.96296296296296,0)" xlink:href="#aG"/><use transform="matrix(0.06234567901234567,0,0,0.06234567901234567,22.382098765432094,0)" xlink:href="#aH"/><use transform="matrix(0.06234567901234567,0,0,0.06234567901234567,28.61666666666666,0)" xlink:href="#aB"/><use transform="matrix(0.06234567901234567,0,0,0.06234567901234567,33.541975308641966,0)" xlink:href="#aI"/><use transform="matrix(0.06234567901234567,0,0,0.06234567901234567,39.776543209876536,0)" xlink:href="#aD"/><use transform="matrix(0.06234567901234567,0,0,0.06234567901234567,52.24567901234567,0)" xlink:href="#aJ"/><use transform="matrix(0.06234567901234567,0,0,0.06234567901234567,63.46790123456789,0)" xlink:href="#aH"/><use transform="matrix(0.06234567901234567,0,0,0.06234567901234567,69.70246913580246,0)" xlink:href="#aK"/></g><path fill="#333" d="M20-101c0-91 52-143 145-150 126-9 127 168 53 223-23 17-55 32-93 32C57 4 20-33 20-101zm216-33c5-57-18-91-73-90-77 1-110 51-110 125 0 49 23 75 73 75 72-1 104-45 110-110" id="aL"/><path fill="#333" d="M18-82l6-28h88l-6 28H18" id="aM"/><path fill="#333" d="M133-28C103 26-5 8 13-77c13-62 24-115 90-117 29-1 46 15 56 35l19-102h32L160 0h-30zM45-64c-2 27 10 43 35 43 54-1 69-50 69-103 0-29-15-46-42-46-53-1-58 58-62 106" id="aN"/><path fill="#333" d="M111-194c62-3 86 47 72 106H45c-7 38 6 69 45 68 27-1 43-14 53-32l24 11C152-15 129 4 87 4 38 3 12-23 12-71c0-70 32-119 99-123zm44 81c14-66-71-72-95-28-4 8-8 17-11 28h106" id="aO"/><path fill="#333" d="M89 0H52L20-190h33L74-25l89-165h34" id="aP"/><path fill="#333" d="M44-68c0 29 11 47 38 47 30 0 42-19 51-41l28 9C148-21 126 4 82 4 31 4 10-29 12-85c3-77 74-140 146-93 12 8 15 23 18 40l-31 5c-1-22-13-36-36-36-52 0-65 49-65 101" id="aQ"/><g id="e"><use transform="matrix(0.06234567901234567,0,0,0.06234567901234567,0,0)" xlink:href="#aL"/><use transform="matrix(0.06234567901234567,0,0,0.06234567901234567,17.456790123456788,0)" xlink:href="#at"/><use transform="matrix(0.06234567901234567,0,0,0.06234567901234567,29.92592592592592,0)" xlink:href="#aM"/><use transform="matrix(0.06234567901234567,0,0,0.06234567901234567,37.34506172839505,0)" xlink:href="#aN"/><use transform="matrix(0.06234567901234567,0,0,0.06234567901234567,49.814197530864185,0)" xlink:href="#aO"/><use transform="matrix(0.06234567901234567,0,0,0.06234567901234567,62.28333333333332,0)" xlink:href="#aP"/><use transform="matrix(0.06234567901234567,0,0,0.06234567901234567,73.50555555555553,0)" xlink:href="#ap"/><use transform="matrix(0.06234567901234567,0,0,0.06234567901234567,78.43086419753084,0)" xlink:href="#aQ"/><use transform="matrix(0.06234567901234567,0,0,0.06234567901234567,89.65308641975305,0)" xlink:href="#aO"/></g><path fill="#333" d="M238-179c0 84-86 86-175 82L45 0H11l48-248c82 0 179-12 179 69zm-34 1c0-53-64-42-116-43l-19 98c63 0 135 9 135-55" id="aR"/><path fill="#333" d="M66-151c12-25 30-51 66-40l-6 26C45-176 58-65 38 0H6l36-190h30" id="aS"/><path fill="#333" d="M76-167L44 0H12l33-167H18l4-23h27c3-47 25-81 82-69l-4 24c-35-8-44 15-46 45h37l-5 23H76" id="aT"/><path fill="#333" d="M103-194c29 0 47 14 56 36 2-11 5-23 8-32h30L160-5C157 61 82 97 21 62 9 55 4 45 1 30l28-7c7 42 83 31 92-3 4-16 9-38 13-55-13 20-29 36-62 36-40 0-60-25-60-64 0-71 23-131 91-131zm4 24c-53 0-58 54-61 104-2 27 10 44 36 44 49 0 65-50 67-102 1-29-15-46-42-46" id="aU"/><g id="f"><use transform="matrix(0.06234567901234567,0,0,0.06234567901234567,0,0)" xlink:href="#aR"/><use transform="matrix(0.06234567901234567,0,0,0.06234567901234567,14.96296296296296,0)" xlink:href="#aS"/><use transform="matrix(0.06234567901234567,0,0,0.06234567901234567,22.382098765432094,0)" xlink:href="#am"/><use transform="matrix(0.06234567901234567,0,0,0.06234567901234567,34.85123456790123,0)" xlink:href="#aT"/><use transform="matrix(0.06234567901234567,0,0,0.06234567901234567,41.0858024691358,0)" xlink:href="#ap"/><use transform="matrix(0.06234567901234567,0,0,0.06234567901234567,46.011111111111106,0)" xlink:href="#aq"/><use transform="matrix(0.06234567901234567,0,0,0.06234567901234567,50.93641975308641,0)" xlink:href="#ap"/><use transform="matrix(0.06234567901234567,0,0,0.06234567901234567,55.86172839506172,0)" xlink:href="#at"/><use transform="matrix(0.06234567901234567,0,0,0.06234567901234567,68.33086419753084,0)" xlink:href="#aU"/></g><path fill="#333" d="M187 0l-14-72H61L19 0h-37l149-248h38L221 0h-34zm-19-99l-22-123L76-99h92" id="aV"/><path fill="#333" d="M67 3c-93-2-31-127-26-193h32L48-50c-3 39 53 32 70 12 30-34 30-101 43-152h32L157 0h-30c1-10 6-24 4-33-14 20-29 37-64 36" id="aW"/><g id="g"><use transform="matrix(0.06234567901234567,0,0,0.06234567901234567,0,0)" xlink:href="#aV"/><use transform="matrix(0.06234567901234567,0,0,0.06234567901234567,14.96296296296296,0)" xlink:href="#aW"/><use transform="matrix(0.06234567901234567,0,0,0.06234567901234567,27.432098765432094,0)" xlink:href="#as"/><use transform="matrix(0.06234567901234567,0,0,0.06234567901234567,33.66666666666666,0)" xlink:href="#am"/><use transform="matrix(0.06234567901234567,0,0,0.06234567901234567,46.13580246913579,0)" xlink:href="#as"/><use transform="matrix(0.06234567901234567,0,0,0.06234567901234567,52.37037037037035,0)" xlink:href="#aW"/><use transform="matrix(0.06234567901234567,0,0,0.06234567901234567,64.83950617283949,0)" xlink:href="#at"/><use transform="matrix(0.06234567901234567,0,0,0.06234567901234567,77.30864197530863,0)" xlink:href="#ap"/><use transform="matrix(0.06234567901234567,0,0,0.06234567901234567,82.23395061728394,0)" xlink:href="#at"/><use transform="matrix(0.06234567901234567,0,0,0.06234567901234567,94.70308641975308,0)" xlink:href="#aU"/></g><path fill="#fff" d="M30-248c87 1 191-15 191 75 0 78-77 80-158 76V0H30v-248zm33 125c57 0 124 11 124-50 0-59-68-47-124-48v98" id="aX"/><path fill="#fff" d="M179-190L93 31C79 59 56 82 12 73V49c39 6 53-20 64-50L1-190h34L92-34l54-156h33" id="aY"/><path fill="#fff" d="M127-220V0H93v-220H8v-28h204v28h-85" id="aZ"/><path fill="#fff" d="M100-194c62-1 85 37 85 99 1 63-27 99-86 99S16-35 15-95c0-66 28-99 85-99zM99-20c44 1 53-31 53-75 0-43-8-75-51-75s-53 32-53 75 10 74 51 75" id="ba"/><path fill="#fff" d="M114-163C36-179 61-72 57 0H25l-1-190h30c1 12-1 29 2 39 6-27 23-49 58-41v29" id="bb"/><path fill="#fff" d="M96-169c-40 0-48 33-48 73s9 75 48 75c24 0 41-14 43-38l32 2c-6 37-31 61-74 61-59 0-76-41-82-99-10-93 101-131 147-64 4 7 5 14 7 22l-32 3c-4-21-16-35-41-35" id="bc"/><path fill="#fff" d="M106-169C34-169 62-67 57 0H25v-261h32l-1 103c12-21 28-36 61-36 89 0 53 116 60 194h-32v-121c2-32-8-49-39-48" id="bd"/><g id="h"><use transform="matrix(0.05555555555555555,0,0,0.05555555555555555,0,0)" xlink:href="#aX"/><use transform="matrix(0.05555555555555555,0,0,0.05555555555555555,13.333333333333332,0)" xlink:href="#aY"/><use transform="matrix(0.05555555555555555,0,0,0.05555555555555555,23.333333333333332,0)" xlink:href="#aZ"/><use transform="matrix(0.05555555555555555,0,0,0.05555555555555555,33.27777777777778,0)" xlink:href="#ba"/><use transform="matrix(0.05555555555555555,0,0,0.05555555555555555,44.388888888888886,0)" xlink:href="#bb"/><use transform="matrix(0.05555555555555555,0,0,0.05555555555555555,51,0)" xlink:href="#bc"/><use transform="matrix(0.05555555555555555,0,0,0.05555555555555555,61,0)" xlink:href="#bd"/></g><path fill="#fff" d="M0 4l72-265h28L28 4H0" id="be"/><use transform="matrix(0.05555555555555555,0,0,0.05555555555555555,0,0)" xlink:href="#be" id="i"/><path fill="#fff" d="M194 0L95-120 63-95V0H30v-248h33v124l119-124h40L117-140 236 0h-42" id="bf"/><path fill="#fff" d="M100-194c63 0 86 42 84 106H49c0 40 14 67 53 68 26 1 43-12 49-29l28 8c-11 28-37 45-77 45C44 4 14-33 15-96c1-61 26-98 85-98zm52 81c6-60-76-77-97-28-3 7-6 17-6 28h103" id="bg"/><path fill="#fff" d="M141-36C126-15 110 5 73 4 37 3 15-17 15-53c-1-64 63-63 125-63 3-35-9-54-41-54-24 1-41 7-42 31l-33-3c5-37 33-52 76-52 45 0 72 20 72 64v82c-1 20 7 32 28 27v20c-31 9-61-2-59-35zM48-53c0 20 12 33 32 33 41-3 63-29 60-74-43 2-92-5-92 41" id="bh"/><path fill="#fff" d="M135-143c-3-34-86-38-87 0 15 53 115 12 119 90S17 21 10-45l28-5c4 36 97 45 98 0-10-56-113-15-118-90-4-57 82-63 122-42 12 7 21 19 24 35" id="bi"/><g id="j"><use transform="matrix(0.05555555555555555,0,0,0.05555555555555555,0,0)" xlink:href="#bf"/><use transform="matrix(0.05555555555555555,0,0,0.05555555555555555,13.333333333333332,0)" xlink:href="#bg"/><use transform="matrix(0.05555555555555555,0,0,0.05555555555555555,24.444444444444443,0)" xlink:href="#bb"/><use transform="matrix(0.05555555555555555,0,0,0.05555555555555555,31.055555555555554,0)" xlink:href="#bh"/><use transform="matrix(0.05555555555555555,0,0,0.05555555555555555,42.166666666666664,0)" xlink:href="#bi"/></g><path fill="#fff" d="M30-248c118-7 216 8 213 122C240-48 200 0 122 0H30v-248zM63-27c89 8 146-16 146-99s-60-101-146-95v194" id="bj"/><path fill="#fff" d="M190 0L58-211 59 0H30v-248h39L202-35l-2-213h31V0h-41" id="bk"/><g id="k"><use transform="matrix(0.05555555555555555,0,0,0.05555555555555555,0,0)" xlink:href="#bj"/><use transform="matrix(0.05555555555555555,0,0,0.05555555555555555,14.388888888888888,0)" xlink:href="#bk"/><use transform="matrix(0.05555555555555555,0,0,0.05555555555555555,28.777777777777775,0)" xlink:href="#bk"/></g><path fill="#fff" d="M240 0l2-218c-23 76-54 145-80 218h-23L58-218 59 0H30v-248h44l77 211c21-75 51-140 76-211h43V0h-30" id="bl"/><path fill="#fff" d="M85-194c31 0 48 13 60 33l-1-100h32l1 261h-30c-2-10 0-23-3-31C134-8 116 4 85 4 32 4 16-35 15-94c0-66 23-100 70-100zm9 24c-40 0-46 34-46 75 0 40 6 74 45 74 42 0 51-32 51-76 0-42-9-74-50-73" id="bm"/><path fill="#fff" d="M84 4C-5 8 30-112 23-190h32v120c0 31 7 50 39 49 72-2 45-101 50-169h31l1 190h-30c-1-10 1-25-2-33-11 22-28 36-60 37" id="bn"/><path fill="#fff" d="M24 0v-261h32V0H24" id="bo"/><g id="l"><use transform="matrix(0.05555555555555555,0,0,0.05555555555555555,0,0)" xlink:href="#bl"/><use transform="matrix(0.05555555555555555,0,0,0.05555555555555555,16.61111111111111,0)" xlink:href="#ba"/><use transform="matrix(0.05555555555555555,0,0,0.05555555555555555,27.72222222222222,0)" xlink:href="#bm"/><use transform="matrix(0.05555555555555555,0,0,0.05555555555555555,38.83333333333333,0)" xlink:href="#bn"/><use transform="matrix(0.05555555555555555,0,0,0.05555555555555555,49.94444444444444,0)" xlink:href="#bo"/><use transform="matrix(0.05555555555555555,0,0,0.05555555555555555,54.33333333333333,0)" xlink:href="#bg"/></g><path fill="#fff" d="M197 0v-115H63V0H30v-248h33v105h134v-105h34V0h-34" id="bp"/><path fill="#fff" d="M137 0h-34L2-248h35l83 218 83-218h36" id="bq"/><path fill="#fff" d="M16-82v-28h88v28H16" id="br"/><path fill="#fff" d="M212-179c-10-28-35-45-73-45-59 0-87 40-87 99 0 60 29 101 89 101 43 0 62-24 78-52l27 14C228-24 195 4 139 4 59 4 22-46 18-125c-6-104 99-153 187-111 19 9 31 26 39 46" id="bs"/><g id="m"><use transform="matrix(0.05555555555555555,0,0,0.05555555555555555,0,0)" xlink:href="#bp"/><use transform="matrix(0.05555555555555555,0,0,0.05555555555555555,14.388888888888888,0)" xlink:href="#aX"/><use transform="matrix(0.05555555555555555,0,0,0.05555555555555555,27.72222222222222,0)" xlink:href="#bq"/><use transform="matrix(0.05555555555555555,0,0,0.05555555555555555,41.05555555555556,0)" xlink:href="#bl"/><use transform="matrix(0.05555555555555555,0,0,0.05555555555555555,57.66666666666668,0)" xlink:href="#br"/><use transform="matrix(0.05555555555555555,0,0,0.05555555555555555,64.27777777777779,0)" xlink:href="#bs"/></g><g id="n"><use transform="matrix(0.05555555555555555,0,0,0.05555555555555555,0,0)" xlink:href="#bc"/><use transform="matrix(0.05555555555555555,0,0,0.05555555555555555,10,0)" xlink:href="#ba"/><use transform="matrix(0.05555555555555555,0,0,0.05555555555555555,21.11111111111111,0)" xlink:href="#bm"/><use transform="matrix(0.05555555555555555,0,0,0.05555555555555555,32.22222222222222,0)" xlink:href="#bg"/></g><path fill="#fff" d="M87 75C49 33 22-17 22-94c0-76 28-126 65-167h31c-38 41-64 92-64 168S80 34 118 75H87" id="bt"/><path fill="#fff" d="M101-234c-31-9-42 10-38 44h38v23H63V0H32v-167H5v-23h27c-7-52 17-82 69-68v24" id="bu"/><g id="o"><use transform="matrix(0.05555555555555555,0,0,0.05555555555555555,0,0)" xlink:href="#bt"/><use transform="matrix(0.05555555555555555,0,0,0.05555555555555555,6.611111111111111,0)" xlink:href="#bu"/><use transform="matrix(0.05555555555555555,0,0,0.05555555555555555,12.166666666666666,0)" xlink:href="#ba"/><use transform="matrix(0.05555555555555555,0,0,0.05555555555555555,23.27777777777778,0)" xlink:href="#bb"/></g><path fill="#fff" d="M24-231v-30h32v30H24zM24 0v-190h32V0H24" id="bv"/><path fill="#fff" d="M117-194c89-4 53 116 60 194h-32v-121c0-31-8-49-39-48C34-167 62-67 57 0H25l-1-190h30c1 10-1 24 2 32 11-22 29-35 61-36" id="bw"/><path fill="#fff" d="M33-261c38 41 65 92 65 168S71 34 33 75H2C39 34 66-17 66-93S39-220 2-261h31" id="bx"/><g id="p"><use transform="matrix(0.05555555555555555,0,0,0.05555555555555555,0,0)" xlink:href="#bv"/><use transform="matrix(0.05555555555555555,0,0,0.05555555555555555,4.388888888888888,0)" xlink:href="#bw"/><use transform="matrix(0.05555555555555555,0,0,0.05555555555555555,15.5,0)" xlink:href="#bu"/><use transform="matrix(0.05555555555555555,0,0,0.05555555555555555,21.055555555555557,0)" xlink:href="#bg"/><use transform="matrix(0.05555555555555555,0,0,0.05555555555555555,32.16666666666667,0)" xlink:href="#bb"/><use transform="matrix(0.05555555555555555,0,0,0.05555555555555555,38.777777777777786,0)" xlink:href="#bg"/><use transform="matrix(0.05555555555555555,0,0,0.05555555555555555,49.8888888888889,0)" xlink:href="#bw"/><use transform="matrix(0.05555555555555555,0,0,0.05555555555555555,61.00000000000001,0)" xlink:href="#bc"/><use transform="matrix(0.05555555555555555,0,0,0.05555555555555555,71.00000000000001,0)" xlink:href="#bg"/><use transform="matrix(0.05555555555555555,0,0,0.05555555555555555,82.11111111111113,0)" xlink:href="#bx"/></g><g id="q"><use transform="matrix(0.04938271604938272,0,0,0.04938271604938272,0,0)" xlink:href="#bp"/><use transform="matrix(0.04938271604938272,0,0,0.04938271604938272,12.790123456790125,0)" xlink:href="#aX"/><use transform="matrix(0.04938271604938272,0,0,0.04938271604938272,24.641975308641978,0)" xlink:href="#bq"/><use transform="matrix(0.04938271604938272,0,0,0.04938271604938272,36.49382716049383,0)" xlink:href="#bl"/></g><path fill="#fff" d="M33 0v-248h34V0H33" id="by"/><path fill="#fff" d="M233-177c-1 41-23 64-60 70L243 0h-38l-65-103H63V0H30v-248c88 3 205-21 203 71zM63-129c60-2 137 13 137-47 0-61-80-42-137-45v92" id="bz"/><g id="r"><use transform="matrix(0.04938271604938272,0,0,0.04938271604938272,0,0)" xlink:href="#by"/><use transform="matrix(0.04938271604938272,0,0,0.04938271604938272,4.938271604938272,0)" xlink:href="#bz"/></g><g id="s"><use transform="matrix(0.05555555555555555,0,0,0.05555555555555555,0,0)" xlink:href="#bp"/><use transform="matrix(0.05555555555555555,0,0,0.05555555555555555,14.388888888888888,0)" xlink:href="#aX"/><use transform="matrix(0.05555555555555555,0,0,0.05555555555555555,27.72222222222222,0)" xlink:href="#bq"/><use transform="matrix(0.05555555555555555,0,0,0.05555555555555555,41.05555555555556,0)" xlink:href="#bl"/></g><path fill="#fff" d="M177-190C167-65 218 103 67 71c-23-6-38-20-44-43l32-5c15 47 100 32 89-28v-30C133-14 115 1 83 1 29 1 15-40 15-95c0-56 16-97 71-98 29-1 48 16 59 35 1-10 0-23 2-32h30zM94-22c36 0 50-32 50-73 0-42-14-75-50-75-39 0-46 34-46 75s6 73 46 73" id="bA"/><path fill="#fff" d="M59-47c-2 24 18 29 38 22v24C64 9 27 4 27-40v-127H5v-23h24l9-43h21v43h35v23H59v120" id="bB"/><g id="t"><use transform="matrix(0.05555555555555555,0,0,0.05555555555555555,0,0)" xlink:href="#bA"/><use transform="matrix(0.05555555555555555,0,0,0.05555555555555555,11.11111111111111,0)" xlink:href="#bg"/><use transform="matrix(0.05555555555555555,0,0,0.05555555555555555,22.22222222222222,0)" xlink:href="#bw"/><use transform="matrix(0.05555555555555555,0,0,0.05555555555555555,33.33333333333333,0)" xlink:href="#bg"/><use transform="matrix(0.05555555555555555,0,0,0.05555555555555555,44.44444444444444,0)" xlink:href="#bb"/><use transform="matrix(0.05555555555555555,0,0,0.05555555555555555,51.05555555555556,0)" xlink:href="#bh"/><use transform="matrix(0.05555555555555555,0,0,0.05555555555555555,62.16666666666668,0)" xlink:href="#bB"/><use transform="matrix(0.05555555555555555,0,0,0.05555555555555555,67.72222222222223,0)" xlink:href="#ba"/><use transform="matrix(0.05555555555555555,0,0,0.05555555555555555,78.83333333333334,0)" xlink:href="#bb"/></g><path fill="#fff" d="M30 0v-248h33v221h125V0H30" id="bC"/><g id="u"><use transform="matrix(0.05555555555555555,0,0,0.05555555555555555,0,0)" xlink:href="#bC"/><use transform="matrix(0.05555555555555555,0,0,0.05555555555555555,11.11111111111111,0)" xlink:href="#bC"/><use transform="matrix(0.05555555555555555,0,0,0.05555555555555555,20.72222222222222,0)" xlink:href="#bq"/><use transform="matrix(0.05555555555555555,0,0,0.05555555555555555,34.05555555555556,0)" xlink:href="#bl"/></g><g id="v"><use transform="matrix(0.05555555555555555,0,0,0.05555555555555555,0,0)" xlink:href="#by"/><use transform="matrix(0.05555555555555555,0,0,0.05555555555555555,5.555555555555555,0)" xlink:href="#bz"/></g><path fill="#fff" d="M30 0v-248h187v28H63v79h144v27H63v87h162V0H30" id="bD"/><path fill="#fff" d="M141 0L90-78 38 0H4l68-98-65-92h35l48 74 47-74h35l-64 92 68 98h-35" id="bE"/><path fill="#fff" d="M115-194c53 0 69 39 70 98 0 66-23 100-70 100C84 3 66-7 56-30L54 0H23l1-261h32v101c10-23 28-34 59-34zm-8 174c40 0 45-34 45-75 0-40-5-75-45-74-42 0-51 32-51 76 0 43 10 73 51 73" id="bF"/><g id="w"><use transform="matrix(0.05555555555555555,0,0,0.05555555555555555,0,0)" xlink:href="#bD"/><use transform="matrix(0.05555555555555555,0,0,0.05555555555555555,13.333333333333332,0)" xlink:href="#bE"/><use transform="matrix(0.05555555555555555,0,0,0.05555555555555555,23.333333333333332,0)" xlink:href="#bg"/><use transform="matrix(0.05555555555555555,0,0,0.05555555555555555,34.44444444444444,0)" xlink:href="#bc"/><use transform="matrix(0.05555555555555555,0,0,0.05555555555555555,44.44444444444444,0)" xlink:href="#bn"/><use transform="matrix(0.05555555555555555,0,0,0.05555555555555555,55.55555555555556,0)" xlink:href="#bB"/><use transform="matrix(0.05555555555555555,0,0,0.05555555555555555,61.11111111111112,0)" xlink:href="#bh"/><use transform="matrix(0.05555555555555555,0,0,0.05555555555555555,72.22222222222223,0)" xlink:href="#bF"/><use transform="matrix(0.05555555555555555,0,0,0.05555555555555555,83.33333333333334,0)" xlink:href="#bo"/><use transform="matrix(0.05555555555555555,0,0,0.05555555555555555,87.72222222222223,0)" xlink:href="#bg"/></g><g id="x"><use transform="matrix(0.05555555555555555,0,0,0.05555555555555555,0,0)" xlink:href="#bl"/><use transform="matrix(0.05555555555555555,0,0,0.05555555555555555,16.61111111111111,0)" xlink:href="#ba"/><use transform="matrix(0.05555555555555555,0,0,0.05555555555555555,27.72222222222222,0)" xlink:href="#bm"/><use transform="matrix(0.05555555555555555,0,0,0.05555555555555555,38.83333333333333,0)" xlink:href="#bg"/><use transform="matrix(0.05555555555555555,0,0,0.05555555555555555,49.94444444444444,0)" xlink:href="#bo"/></g><path fill="#fff" d="M115-194c55 1 70 41 70 98S169 2 115 4C84 4 66-9 55-30l1 105H24l-1-265h31l2 30c10-21 28-34 59-34zm-8 174c40 0 45-34 45-75s-6-73-45-74c-42 0-51 32-51 76 0 43 10 73 51 73" id="bG"/><path fill="#fff" d="M210-169c-67 3-38 105-44 169h-31v-121c0-29-5-50-35-48C34-165 62-65 56 0H25l-1-190h30c1 10-1 24 2 32 10-44 99-50 107 0 11-21 27-35 58-36 85-2 47 119 55 194h-31v-121c0-29-5-49-35-48" id="bH"/><g id="y"><use transform="matrix(0.05555555555555555,0,0,0.05555555555555555,0,0)" xlink:href="#bG"/><use transform="matrix(0.05555555555555555,0,0,0.05555555555555555,11.11111111111111,0)" xlink:href="#bh"/><use transform="matrix(0.05555555555555555,0,0,0.05555555555555555,22.22222222222222,0)" xlink:href="#bb"/><use transform="matrix(0.05555555555555555,0,0,0.05555555555555555,28.833333333333332,0)" xlink:href="#bh"/><use transform="matrix(0.05555555555555555,0,0,0.05555555555555555,39.94444444444444,0)" xlink:href="#bH"/><use transform="matrix(0.05555555555555555,0,0,0.05555555555555555,56.55555555555556,0)" xlink:href="#bg"/><use transform="matrix(0.05555555555555555,0,0,0.05555555555555555,67.66666666666667,0)" xlink:href="#bB"/><use transform="matrix(0.05555555555555555,0,0,0.05555555555555555,73.22222222222223,0)" xlink:href="#bg"/><use transform="matrix(0.05555555555555555,0,0,0.05555555555555555,84.33333333333334,0)" xlink:href="#bb"/><use transform="matrix(0.05555555555555555,0,0,0.05555555555555555,90.94444444444446,0)" xlink:href="#bi"/></g><path fill="#fff" d="M63-220v92h138v28H63V0H30v-248h175v28H63" id="bI"/><g id="z"><use transform="matrix(0.05555555555555555,0,0,0.05555555555555555,0,0)" xlink:href="#bI"/><use transform="matrix(0.05555555555555555,0,0,0.05555555555555555,12.166666666666666,0)" xlink:href="#bb"/><use transform="matrix(0.05555555555555555,0,0,0.05555555555555555,18.77777777777778,0)" xlink:href="#ba"/><use transform="matrix(0.05555555555555555,0,0,0.05555555555555555,29.888888888888886,0)" xlink:href="#bw"/><use transform="matrix(0.05555555555555555,0,0,0.05555555555555555,41,0)" xlink:href="#bB"/><use transform="matrix(0.05555555555555555,0,0,0.05555555555555555,46.55555555555556,0)" xlink:href="#bg"/><use transform="matrix(0.05555555555555555,0,0,0.05555555555555555,57.66666666666668,0)" xlink:href="#bw"/><use transform="matrix(0.05555555555555555,0,0,0.05555555555555555,68.77777777777779,0)" xlink:href="#bm"/></g><path d="M179 0l23-115H67L45 0H11l48-248h34L72-143h135l21-105h32L212 0h-33" id="bJ"/><path d="M238-179c0 84-86 86-175 82L45 0H11l48-248c82 0 179-12 179 69zm-34 1c0-53-64-42-116-43l-19 98c63 0 135 9 135-55" id="bK"/><path d="M119 0H84L31-248h34l41 218 126-218h36" id="bL"/><path d="M222 0l43-216c-8 16-17 34-26 49L143 0h-22L81-216 41 0H11l48-248h42l38 208 116-208h45L252 0h-30" id="bM"/><g id="A"><use transform="matrix(0.04320987654320988,0,0,0.04320987654320988,0,0)" xlink:href="#bJ"/><use transform="matrix(0.04320987654320988,0,0,0.04320987654320988,11.19135802469136,0)" xlink:href="#bK"/><use transform="matrix(0.04320987654320988,0,0,0.04320987654320988,21.56172839506173,0)" xlink:href="#bL"/><use transform="matrix(0.04320987654320988,0,0,0.04320987654320988,31.9320987654321,0)" xlink:href="#bM"/></g><path d="M51-54c-9 22 5 41 31 30L79-1C43 14 10-4 19-52l22-115H19l5-23h22l19-43h21l-9 43h35l-4 23H73" id="bN"/><path d="M111-194c62-3 86 47 72 106H45c-7 38 6 69 45 68 27-1 43-14 53-32l24 11C152-15 129 4 87 4 38 3 12-23 12-71c0-70 32-119 99-123zm44 81c14-66-71-72-95-28-4 8-8 17-11 28h106" id="bO"/><path d="M67-158c22-48 132-52 116 29L158 0h-32l25-140c3-38-53-32-70-12C52-117 51-52 38 0H6l36-190h30" id="bP"/><path d="M55-144c13 50 104 24 104 88C159 21 15 23 1-39l26-10c6 40 102 42 102-4-13-50-104-23-104-87 0-71 143-71 148-8l-29 4c-5-35-85-37-89 0" id="bQ"/><path d="M30-147c31-64 166-65 159 27C183-49 158 1 86 4 9 8 1-88 30-147zM88-20c53 0 68-48 68-100 0-31-11-51-44-50-52 1-68 46-68 97 0 32 13 53 44 53" id="bR"/><path d="M66-151c12-25 30-51 66-40l-6 26C45-176 58-65 38 0H6l36-190h30" id="bS"/><g id="B"><use transform="matrix(0.04320987654320988,0,0,0.04320987654320988,0,0)" xlink:href="#bN"/><use transform="matrix(0.04320987654320988,0,0,0.04320987654320988,4.320987654320988,0)" xlink:href="#bO"/><use transform="matrix(0.04320987654320988,0,0,0.04320987654320988,12.962962962962964,0)" xlink:href="#bP"/><use transform="matrix(0.04320987654320988,0,0,0.04320987654320988,21.604938271604944,0)" xlink:href="#bQ"/><use transform="matrix(0.04320987654320988,0,0,0.04320987654320988,29.382716049382726,0)" xlink:href="#bR"/><use transform="matrix(0.04320987654320988,0,0,0.04320987654320988,38.0246913580247,0)" xlink:href="#bS"/></g><path d="M76-167L44 0H12l33-167H18l4-23h27c3-47 25-81 82-69l-4 24c-35-8-44 15-46 45h37l-5 23H76" id="bT"/><path d="M248-111c6-24 9-61-24-58-72 9-57 108-77 169h-31l26-142c3-37-50-30-64-10C52-115 50-51 37 0H6l36-190h30c-1 10-6 24-4 32 13-43 101-52 105 5 13-22 29-41 61-41 90 0 28 129 23 194h-31" id="bU"/><path d="M165-48c-4 18 1 34 23 27l-3 20c-29 8-62 0-52-35h-2C116-14 99 4 63 4 30 4 8-16 8-49c0-68 71-67 138-67 10-26 0-56-31-54-26 1-42 9-47 31l-32-5c8-67 160-71 144 15-5 28-9 54-15 81zM42-50c3 52 80 24 89-6 7-12 7-24 11-38-47 1-103-4-100 44" id="bV"/><g id="C"><use transform="matrix(0.04320987654320988,0,0,0.04320987654320988,0,0)" xlink:href="#bT"/><use transform="matrix(0.04320987654320988,0,0,0.04320987654320988,4.320987654320988,0)" xlink:href="#bR"/><use transform="matrix(0.04320987654320988,0,0,0.04320987654320988,12.962962962962964,0)" xlink:href="#bS"/><use transform="matrix(0.04320987654320988,0,0,0.04320987654320988,18.10493827160494,0)" xlink:href="#bU"/><use transform="matrix(0.04320987654320988,0,0,0.04320987654320988,31.024691358024693,0)" xlink:href="#bV"/><use transform="matrix(0.04320987654320988,0,0,0.04320987654320988,39.66666666666667,0)" xlink:href="#bN"/></g><g id="D"><use transform="matrix(0.05555555555555555,0,0,0.05555555555555555,0,0)" xlink:href="#bj"/><use transform="matrix(0.05555555555555555,0,0,0.05555555555555555,14.388888888888888,0)" xlink:href="#bh"/><use transform="matrix(0.05555555555555555,0,0,0.05555555555555555,25.5,0)" xlink:href="#bB"/><use transform="matrix(0.05555555555555555,0,0,0.05555555555555555,31.05555555555556,0)" xlink:href="#bh"/><use transform="matrix(0.05555555555555555,0,0,0.05555555555555555,42.16666666666667,0)" xlink:href="#bi"/><use transform="matrix(0.05555555555555555,0,0,0.05555555555555555,52.16666666666667,0)" xlink:href="#bg"/><use transform="matrix(0.05555555555555555,0,0,0.05555555555555555,63.277777777777786,0)" xlink:href="#bB"/></g><g id="E"><use transform="matrix(0.05555555555555555,0,0,0.05555555555555555,0,0)" xlink:href="#bv"/><use transform="matrix(0.05555555555555555,0,0,0.05555555555555555,4.388888888888888,0)" xlink:href="#bw"/></g><g id="F"><use transform="matrix(0.05555555555555555,0,0,0.05555555555555555,0,0)" xlink:href="#aX"/><use transform="matrix(0.05555555555555555,0,0,0.05555555555555555,13.333333333333332,0)" xlink:href="#aY"/><use transform="matrix(0.05555555555555555,0,0,0.05555555555555555,23.333333333333332,0)" xlink:href="#aZ"/><use transform="matrix(0.05555555555555555,0,0,0.05555555555555555,33.27777777777778,0)" xlink:href="#ba"/><use transform="matrix(0.05555555555555555,0,0,0.05555555555555555,44.388888888888886,0)" xlink:href="#bb"/><use transform="matrix(0.05555555555555555,0,0,0.05555555555555555,51,0)" xlink:href="#bc"/><use transform="matrix(0.05555555555555555,0,0,0.05555555555555555,61,0)" xlink:href="#bd"/></g><g id="G"><use transform="matrix(0.05555555555555555,0,0,0.05555555555555555,0,0)" xlink:href="#bf"/><use transform="matrix(0.05555555555555555,0,0,0.05555555555555555,13.333333333333332,0)" xlink:href="#bg"/><use transform="matrix(0.05555555555555555,0,0,0.05555555555555555,24.444444444444443,0)" xlink:href="#bb"/><use transform="matrix(0.05555555555555555,0,0,0.05555555555555555,31.055555555555554,0)" xlink:href="#bh"/><use transform="matrix(0.05555555555555555,0,0,0.05555555555555555,42.166666666666664,0)" xlink:href="#bi"/></g><g id="H"><use transform="matrix(0.05555555555555555,0,0,0.05555555555555555,0,0)" xlink:href="#bj"/><use transform="matrix(0.05555555555555555,0,0,0.05555555555555555,14.388888888888888,0)" xlink:href="#bh"/><use transform="matrix(0.05555555555555555,0,0,0.05555555555555555,25.5,0)" xlink:href="#bB"/><use transform="matrix(0.05555555555555555,0,0,0.05555555555555555,31.05555555555556,0)" xlink:href="#bh"/><use transform="matrix(0.05555555555555555,0,0,0.05555555555555555,42.16666666666667,0)" xlink:href="#bi"/><use transform="matrix(0.05555555555555555,0,0,0.05555555555555555,52.16666666666667,0)" xlink:href="#bg"/><use transform="matrix(0.05555555555555555,0,0,0.05555555555555555,63.277777777777786,0)" xlink:href="#bB"/></g><g id="I"><use transform="matrix(0.05555555555555555,0,0,0.05555555555555555,0,0)" xlink:href="#bu"/><use transform="matrix(0.05555555555555555,0,0,0.05555555555555555,5.555555555555555,0)" xlink:href="#bv"/><use transform="matrix(0.05555555555555555,0,0,0.05555555555555555,9.944444444444443,0)" xlink:href="#bo"/><use transform="matrix(0.05555555555555555,0,0,0.05555555555555555,14.333333333333332,0)" xlink:href="#bg"/><use transform="matrix(0.05555555555555555,0,0,0.05555555555555555,25.444444444444443,0)" xlink:href="#bi"/></g><g id="J"><use transform="matrix(0.05555555555555555,0,0,0.05555555555555555,0,0)" xlink:href="#aZ"/><use transform="matrix(0.05555555555555555,0,0,0.05555555555555555,11.444444444444445,0)" xlink:href="#bn"/><use transform="matrix(0.05555555555555555,0,0,0.05555555555555555,22.555555555555557,0)" xlink:href="#bw"/><use transform="matrix(0.05555555555555555,0,0,0.05555555555555555,33.66666666666667,0)" xlink:href="#bg"/><use transform="matrix(0.05555555555555555,0,0,0.05555555555555555,44.777777777777786,0)" xlink:href="#bb"/></g><g id="K"><use transform="matrix(0.05555555555555555,0,0,0.05555555555555555,0,0)" xlink:href="#bg"/><use transform="matrix(0.05555555555555555,0,0,0.05555555555555555,11.11111111111111,0)" xlink:href="#bE"/><use transform="matrix(0.05555555555555555,0,0,0.05555555555555555,21.11111111111111,0)" xlink:href="#bg"/><use transform="matrix(0.05555555555555555,0,0,0.05555555555555555,32.22222222222222,0)" xlink:href="#bc"/><use transform="matrix(0.05555555555555555,0,0,0.05555555555555555,42.22222222222222,0)" xlink:href="#bn"/><use transform="matrix(0.05555555555555555,0,0,0.05555555555555555,53.33333333333333,0)" xlink:href="#bB"/><use transform="matrix(0.05555555555555555,0,0,0.05555555555555555,58.888888888888886,0)" xlink:href="#bh"/><use transform="matrix(0.05555555555555555,0,0,0.05555555555555555,70,0)" xlink:href="#bF"/><use transform="matrix(0.05555555555555555,0,0,0.05555555555555555,81.11111111111111,0)" xlink:href="#bo"/><use transform="matrix(0.05555555555555555,0,0,0.05555555555555555,85.5,0)" xlink:href="#bg"/></g><g id="L"><use transform="matrix(0.05,0,0,0.05,0,0)" xlink:href="#as"/><use transform="matrix(0.05,0,0,0.05,5,0)" xlink:href="#aW"/><use transform="matrix(0.05,0,0,0.05,15,0)" xlink:href="#at"/><use transform="matrix(0.05,0,0,0.05,25,0)" xlink:href="#aO"/><use transform="matrix(0.05,0,0,0.05,35,0)" xlink:href="#aS"/></g><g id="M"><use transform="matrix(0.05555555555555555,0,0,0.05555555555555555,0,0)" xlink:href="#bB"/><use transform="matrix(0.05555555555555555,0,0,0.05555555555555555,5.555555555555555,0)" xlink:href="#bn"/><use transform="matrix(0.05555555555555555,0,0,0.05555555555555555,16.666666666666664,0)" xlink:href="#bw"/><use transform="matrix(0.05555555555555555,0,0,0.05555555555555555,27.777777777777775,0)" xlink:href="#bg"/><use transform="matrix(0.05555555555555555,0,0,0.05555555555555555,38.888888888888886,0)" xlink:href="#bb"/><use transform="matrix(0.05555555555555555,0,0,0.05555555555555555,45.5,0)" xlink:href="#bx"/></g><path d="M205 0l-28-72H64L36 0H1l101-248h38L239 0h-34zm-38-99l-47-123c-12 45-31 82-46 123h93" id="bW"/><path d="M84 4C-5 8 30-112 23-190h32v120c0 31 7 50 39 49 72-2 45-101 50-169h31l1 190h-30c-1-10 1-25-2-33-11 22-28 36-60 37" id="bX"/><path d="M59-47c-2 24 18 29 38 22v24C64 9 27 4 27-40v-127H5v-23h24l9-43h21v43h35v23H59v120" id="bY"/><path d="M100-194c62-1 85 37 85 99 1 63-27 99-86 99S16-35 15-95c0-66 28-99 85-99zM99-20c44 1 53-31 53-75 0-43-8-75-51-75s-53 32-53 75 10 74 51 75" id="bZ"/><path d="M117-194c89-4 53 116 60 194h-32v-121c0-31-8-49-39-48C34-167 62-67 57 0H25l-1-190h30c1 10-1 24 2 32 11-22 29-35 61-36" id="ca"/><path d="M24-231v-30h32v30H24zM24 0v-190h32V0H24" id="cb"/><path d="M177-190C167-65 218 103 67 71c-23-6-38-20-44-43l32-5c15 47 100 32 89-28v-30C133-14 115 1 83 1 29 1 15-40 15-95c0-56 16-97 71-98 29-1 48 16 59 35 1-10 0-23 2-32h30zM94-22c36 0 50-32 50-73 0-42-14-75-50-75-39 0-46 34-46 75s6 73 46 73" id="cc"/><g id="N"><use transform="matrix(0.05555555555555555,0,0,0.05555555555555555,0,0)" xlink:href="#bW"/><use transform="matrix(0.05555555555555555,0,0,0.05555555555555555,13.333333333333332,0)" xlink:href="#bX"/><use transform="matrix(0.05555555555555555,0,0,0.05555555555555555,24.444444444444443,0)" xlink:href="#bY"/><use transform="matrix(0.05555555555555555,0,0,0.05555555555555555,30,0)" xlink:href="#bZ"/><use transform="matrix(0.05555555555555555,0,0,0.05555555555555555,41.111111111111114,0)" xlink:href="#bY"/><use transform="matrix(0.05555555555555555,0,0,0.05555555555555555,46.66666666666667,0)" xlink:href="#bX"/><use transform="matrix(0.05555555555555555,0,0,0.05555555555555555,57.777777777777786,0)" xlink:href="#ca"/><use transform="matrix(0.05555555555555555,0,0,0.05555555555555555,68.8888888888889,0)" xlink:href="#cb"/><use transform="matrix(0.05555555555555555,0,0,0.05555555555555555,73.27777777777779,0)" xlink:href="#ca"/><use transform="matrix(0.05555555555555555,0,0,0.05555555555555555,84.3888888888889,0)" xlink:href="#cc"/></g><path d="M210-169c-67 3-38 105-44 169h-31v-121c0-29-5-50-35-48C34-165 62-65 56 0H25l-1-190h30c1 10-1 24 2 32 10-44 99-50 107 0 11-21 27-35 58-36 85-2 47 119 55 194h-31v-121c0-29-5-49-35-48" id="cd"/><path d="M100-194c63 0 86 42 84 106H49c0 40 14 67 53 68 26 1 43-12 49-29l28 8c-11 28-37 45-77 45C44 4 14-33 15-96c1-61 26-98 85-98zm52 81c6-60-76-77-97-28-3 7-6 17-6 28h103" id="ce"/><path d="M141-36C126-15 110 5 73 4 37 3 15-17 15-53c-1-64 63-63 125-63 3-35-9-54-41-54-24 1-41 7-42 31l-33-3c5-37 33-52 76-52 45 0 72 20 72 64v82c-1 20 7 32 28 27v20c-31 9-61-2-59-35zM48-53c0 20 12 33 32 33 41-3 63-29 60-74-43 2-92-5-92 41" id="cf"/><path d="M85-194c31 0 48 13 60 33l-1-100h32l1 261h-30c-2-10 0-23-3-31C134-8 116 4 85 4 32 4 16-35 15-94c0-66 23-100 70-100zm9 24c-40 0-46 34-46 75 0 40 6 74 45 74 42 0 51-32 51-76 0-42-9-74-50-73" id="cg"/><g id="O"><use transform="matrix(0.05555555555555555,0,0,0.05555555555555555,0,0)" xlink:href="#cd"/><use transform="matrix(0.05555555555555555,0,0,0.05555555555555555,16.61111111111111,0)" xlink:href="#ce"/><use transform="matrix(0.05555555555555555,0,0,0.05555555555555555,27.72222222222222,0)" xlink:href="#bY"/><use transform="matrix(0.05555555555555555,0,0,0.05555555555555555,33.27777777777778,0)" xlink:href="#cf"/><use transform="matrix(0.05555555555555555,0,0,0.05555555555555555,44.388888888888886,0)" xlink:href="#cg"/><use transform="matrix(0.05555555555555555,0,0,0.05555555555555555,55.5,0)" xlink:href="#cf"/><use transform="matrix(0.05555555555555555,0,0,0.05555555555555555,66.61111111111111,0)" xlink:href="#bY"/><use transform="matrix(0.05555555555555555,0,0,0.05555555555555555,72.16666666666667,0)" xlink:href="#cf"/></g><path fill="#fff" d="M108 0H70L1-190h34L89-25l56-165h34" id="ch"/><g id="P"><use transform="matrix(0.05555555555555555,0,0,0.05555555555555555,0,0)" xlink:href="#aX"/><use transform="matrix(0.05555555555555555,0,0,0.05555555555555555,13.333333333333332,0)" xlink:href="#bb"/><use transform="matrix(0.05555555555555555,0,0,0.05555555555555555,19.944444444444443,0)" xlink:href="#bg"/><use transform="matrix(0.05555555555555555,0,0,0.05555555555555555,31.055555555555554,0)" xlink:href="#bm"/><use transform="matrix(0.05555555555555555,0,0,0.05555555555555555,42.166666666666664,0)" xlink:href="#bv"/><use transform="matrix(0.05555555555555555,0,0,0.05555555555555555,46.55555555555555,0)" xlink:href="#bc"/><use transform="matrix(0.05555555555555555,0,0,0.05555555555555555,56.55555555555555,0)" xlink:href="#bB"/><use transform="matrix(0.05555555555555555,0,0,0.05555555555555555,62.11111111111111,0)" xlink:href="#bv"/><use transform="matrix(0.05555555555555555,0,0,0.05555555555555555,66.5,0)" xlink:href="#ch"/><use transform="matrix(0.05555555555555555,0,0,0.05555555555555555,76.5,0)" xlink:href="#bg"/></g><g id="Q"><use transform="matrix(0.05555555555555555,0,0,0.05555555555555555,0,0)" xlink:href="#aZ"/><use transform="matrix(0.05555555555555555,0,0,0.05555555555555555,11.444444444444445,0)" xlink:href="#bn"/><use transform="matrix(0.05555555555555555,0,0,0.05555555555555555,22.555555555555557,0)" xlink:href="#bw"/><use transform="matrix(0.05555555555555555,0,0,0.05555555555555555,33.66666666666667,0)" xlink:href="#bg"/><use transform="matrix(0.05555555555555555,0,0,0.05555555555555555,44.777777777777786,0)" xlink:href="#bb"/></g><path fill="#333" d="M212-179c-10-28-35-45-73-45-59 0-87 40-87 99 0 60 29 101 89 101 43 0 62-24 78-52l27 14C228-24 195 4 139 4 59 4 22-46 18-125c-6-104 99-153 187-111 19 9 31 26 39 46" id="ci"/><path fill="#333" d="M141-36C126-15 110 5 73 4 37 3 15-17 15-53c-1-64 63-63 125-63 3-35-9-54-41-54-24 1-41 7-42 31l-33-3c5-37 33-52 76-52 45 0 72 20 72 64v82c-1 20 7 32 28 27v20c-31 9-61-2-59-35zM48-53c0 20 12 33 32 33 41-3 63-29 60-74-43 2-92-5-92 41" id="cj"/><path fill="#333" d="M24-231v-30h32v30H24zM24 0v-190h32V0H24" id="ck"/><path fill="#333" d="M59-47c-2 24 18 29 38 22v24C64 9 27 4 27-40v-127H5v-23h24l9-43h21v43h35v23H59v120" id="cl"/><g id="R"><use transform="matrix(0.056172839506172835,0,0,0.056172839506172835,0,0)" xlink:href="#ci"/><use transform="matrix(0.056172839506172835,0,0,0.056172839506172835,14.548765432098763,0)" xlink:href="#cj"/><use transform="matrix(0.056172839506172835,0,0,0.056172839506172835,25.78333333333333,0)" xlink:href="#ax"/><use transform="matrix(0.056172839506172835,0,0,0.056172839506172835,37.0179012345679,0)" xlink:href="#ay"/><use transform="matrix(0.056172839506172835,0,0,0.056172839506172835,48.25246913580247,0)" xlink:href="#ck"/><use transform="matrix(0.056172839506172835,0,0,0.056172839506172835,52.690123456790126,0)" xlink:href="#ay"/><use transform="matrix(0.056172839506172835,0,0,0.056172839506172835,63.92469135802469,0)" xlink:href="#cj"/><use transform="matrix(0.056172839506172835,0,0,0.056172839506172835,75.15925925925926,0)" xlink:href="#cl"/><use transform="matrix(0.056172839506172835,0,0,0.056172839506172835,80.77654320987654,0)" xlink:href="#av"/></g><path fill="#333" d="M100-194c62-1 85 37 85 99 1 63-27 99-86 99S16-35 15-95c0-66 28-99 85-99zM99-20c44 1 53-31 53-75 0-43-8-75-51-75s-53 32-53 75 10 74 51 75" id="cm"/><path fill="#333" d="M101-234c-31-9-42 10-38 44h38v23H63V0H32v-167H5v-23h27c-7-52 17-82 69-68v24" id="cn"/><path fill="#333" d="M135-143c-3-34-86-38-87 0 15 53 115 12 119 90S17 21 10-45l28-5c4 36 97 45 98 0-10-56-113-15-118-90-4-57 82-63 122-42 12 7 21 19 24 35" id="co"/><g id="S"><use transform="matrix(0.056172839506172835,0,0,0.056172839506172835,0,0)" xlink:href="#ci"/><use transform="matrix(0.056172839506172835,0,0,0.056172839506172835,14.548765432098763,0)" xlink:href="#cm"/><use transform="matrix(0.056172839506172835,0,0,0.056172839506172835,25.78333333333333,0)" xlink:href="#ax"/><use transform="matrix(0.056172839506172835,0,0,0.056172839506172835,37.0179012345679,0)" xlink:href="#cn"/><use transform="matrix(0.056172839506172835,0,0,0.056172839506172835,42.635185185185186,0)" xlink:href="#ck"/><use transform="matrix(0.056172839506172835,0,0,0.056172839506172835,47.07283950617284,0)" xlink:href="#aw"/><use transform="matrix(0.056172839506172835,0,0,0.056172839506172835,58.30740740740742,0)" xlink:href="#co"/></g><path fill="#fff" d="M160-131c35 5 61 23 61 61C221 17 115-2 30 0v-248c76 3 177-17 177 60 0 33-19 50-47 57zm-97-11c50-1 110 9 110-42 0-47-63-36-110-37v79zm0 115c55-2 124 14 124-45 0-56-70-42-124-44v89" id="cp"/><g id="T"><use transform="matrix(0.05555555555555555,0,0,0.05555555555555555,0,0)" xlink:href="#cp"/><use transform="matrix(0.05555555555555555,0,0,0.05555555555555555,13.333333333333332,0)" xlink:href="#bv"/><use transform="matrix(0.05555555555555555,0,0,0.05555555555555555,17.72222222222222,0)" xlink:href="#bw"/><use transform="matrix(0.05555555555555555,0,0,0.05555555555555555,28.833333333333332,0)" xlink:href="#bh"/><use transform="matrix(0.05555555555555555,0,0,0.05555555555555555,39.94444444444444,0)" xlink:href="#bb"/><use transform="matrix(0.05555555555555555,0,0,0.05555555555555555,46.55555555555556,0)" xlink:href="#aY"/></g><g id="U"><use transform="matrix(0.05555555555555555,0,0,0.05555555555555555,0,0)" xlink:href="#bb"/><use transform="matrix(0.05555555555555555,0,0,0.05555555555555555,6.611111111111111,0)" xlink:href="#bn"/><use transform="matrix(0.05555555555555555,0,0,0.05555555555555555,17.72222222222222,0)" xlink:href="#bw"/><use transform="matrix(0.05555555555555555,0,0,0.05555555555555555,28.833333333333332,0)" xlink:href="#bw"/><use transform="matrix(0.05555555555555555,0,0,0.05555555555555555,39.94444444444444,0)" xlink:href="#bg"/><use transform="matrix(0.05555555555555555,0,0,0.05555555555555555,51.05555555555556,0)" xlink:href="#bb"/></g><path fill="#333" d="M185-189c-5-48-123-54-124 2 14 75 158 14 163 119 3 78-121 87-175 55-17-10-28-26-33-46l33-7c5 56 141 63 141-1 0-78-155-14-162-118-5-82 145-84 179-34 5 7 8 16 11 25" id="cq"/><path fill="#333" d="M24 0v-261h32V0H24" id="cr"/><path fill="#333" d="M96-169c-40 0-48 33-48 73s9 75 48 75c24 0 41-14 43-38l32 2c-6 37-31 61-74 61-59 0-76-41-82-99-10-93 101-131 147-64 4 7 5 14 7 22l-32 3c-4-21-16-35-41-35" id="cs"/><g id="V"><use transform="matrix(0.056172839506172835,0,0,0.056172839506172835,0,0)" xlink:href="#cq"/><use transform="matrix(0.056172839506172835,0,0,0.056172839506172835,13.481481481481481,0)" xlink:href="#av"/><use transform="matrix(0.056172839506172835,0,0,0.056172839506172835,24.716049382716047,0)" xlink:href="#cr"/><use transform="matrix(0.056172839506172835,0,0,0.056172839506172835,29.1537037037037,0)" xlink:href="#av"/><use transform="matrix(0.056172839506172835,0,0,0.056172839506172835,40.38827160493827,0)" xlink:href="#cs"/><use transform="matrix(0.056172839506172835,0,0,0.056172839506172835,50.49938271604938,0)" xlink:href="#cl"/><use transform="matrix(0.056172839506172835,0,0,0.056172839506172835,56.11666666666667,0)" xlink:href="#av"/><use transform="matrix(0.056172839506172835,0,0,0.056172839506172835,67.35123456790123,0)" xlink:href="#ay"/></g><g id="W"><use transform="matrix(0.05555555555555555,0,0,0.05555555555555555,0,0)" xlink:href="#aX"/><use transform="matrix(0.05555555555555555,0,0,0.05555555555555555,13.333333333333332,0)" xlink:href="#bb"/><use transform="matrix(0.05555555555555555,0,0,0.05555555555555555,19.944444444444443,0)" xlink:href="#ba"/><use transform="matrix(0.05555555555555555,0,0,0.05555555555555555,31.055555555555554,0)" xlink:href="#bu"/><use transform="matrix(0.05555555555555555,0,0,0.05555555555555555,36.61111111111111,0)" xlink:href="#bv"/><use transform="matrix(0.05555555555555555,0,0,0.05555555555555555,40.99999999999999,0)" xlink:href="#bo"/><use transform="matrix(0.05555555555555555,0,0,0.05555555555555555,45.38888888888888,0)" xlink:href="#bg"/><use transform="matrix(0.05555555555555555,0,0,0.05555555555555555,56.499999999999986,0)" xlink:href="#bb"/></g><g id="X"><use transform="matrix(0.05,0,0,0.05,0,0)" xlink:href="#ap"/><use transform="matrix(0.05,0,0,0.05,3.95,0)" xlink:href="#at"/><use transform="matrix(0.05,0,0,0.05,13.949999999999998,0)" xlink:href="#aT"/><use transform="matrix(0.05,0,0,0.05,18.95,0)" xlink:href="#aO"/><use transform="matrix(0.05,0,0,0.05,28.950000000000003,0)" xlink:href="#aS"/><use transform="matrix(0.05,0,0,0.05,34.9,0)" xlink:href="#aO"/><use transform="matrix(0.05,0,0,0.05,44.9,0)" xlink:href="#at"/><use transform="matrix(0.05,0,0,0.05,54.900000000000006,0)" xlink:href="#aQ"/><use transform="matrix(0.05,0,0,0.05,63.900000000000006,0)" xlink:href="#aO"/></g><path fill="#333" d="M30-248c87 1 191-15 191 75 0 78-77 80-158 76V0H30v-248zm33 125c57 0 124 11 124-50 0-59-68-47-124-48v98" id="ct"/><path fill="#333" d="M114-163C36-179 61-72 57 0H25l-1-190h30c1 12-1 29 2 39 6-27 23-49 58-41v29" id="cu"/><g id="Y"><use transform="matrix(0.056172839506172835,0,0,0.056172839506172835,0,0)" xlink:href="#ct"/><use transform="matrix(0.056172839506172835,0,0,0.056172839506172835,13.481481481481481,0)" xlink:href="#cu"/><use transform="matrix(0.056172839506172835,0,0,0.056172839506172835,20.166049382716047,0)" xlink:href="#cm"/><use transform="matrix(0.056172839506172835,0,0,0.056172839506172835,31.400617283950616,0)" xlink:href="#cn"/><use transform="matrix(0.056172839506172835,0,0,0.056172839506172835,37.017901234567894,0)" xlink:href="#ck"/><use transform="matrix(0.056172839506172835,0,0,0.056172839506172835,41.45555555555555,0)" xlink:href="#cr"/><use transform="matrix(0.056172839506172835,0,0,0.056172839506172835,45.8932098765432,0)" xlink:href="#av"/><use transform="matrix(0.056172839506172835,0,0,0.056172839506172835,57.127777777777766,0)" xlink:href="#ay"/></g><path fill="#333" d="M127-220V0H93v-220H8v-28h204v28h-85" id="cv"/><g id="Z"><use transform="matrix(0.05555555555555555,0,0,0.05555555555555555,0,0)" xlink:href="#cv"/><use transform="matrix(0.05555555555555555,0,0,0.05555555555555555,11.444444444444445,0)" xlink:href="#cu"/><use transform="matrix(0.05555555555555555,0,0,0.05555555555555555,18.055555555555557,0)" xlink:href="#cj"/><use transform="matrix(0.05555555555555555,0,0,0.05555555555555555,29.166666666666664,0)" xlink:href="#ay"/><use transform="matrix(0.05555555555555555,0,0,0.05555555555555555,40.27777777777778,0)" xlink:href="#av"/><use transform="matrix(0.05555555555555555,0,0,0.05555555555555555,51.388888888888886,0)" xlink:href="#cm"/><use transform="matrix(0.05555555555555555,0,0,0.05555555555555555,62.5,0)" xlink:href="#cn"/><use transform="matrix(0.05555555555555555,0,0,0.05555555555555555,67.66666666666667,0)" xlink:href="#cn"/></g><path fill="#333" d="M84 4C-5 8 30-112 23-190h32v120c0 31 7 50 39 49 72-2 45-101 50-169h31l1 190h-30c-1-10 1-25-2-33-11 22-28 36-60 37" id="cw"/><path fill="#333" d="M108 0H70L1-190h34L89-25l56-165h34" id="cx"/><g id="aa"><use transform="matrix(0.05555555555555555,0,0,0.05555555555555555,0,0)" xlink:href="#ci"/><use transform="matrix(0.05555555555555555,0,0,0.05555555555555555,14.388888888888888,0)" xlink:href="#cw"/><use transform="matrix(0.05555555555555555,0,0,0.05555555555555555,25.5,0)" xlink:href="#cu"/><use transform="matrix(0.05555555555555555,0,0,0.05555555555555555,32.111111111111114,0)" xlink:href="#cx"/><use transform="matrix(0.05555555555555555,0,0,0.05555555555555555,42.111111111111114,0)" xlink:href="#av"/></g><path fill="#333" d="M87 75C49 33 22-17 22-94c0-76 28-126 65-167h31c-38 41-64 92-64 168S80 34 118 75H87" id="cy"/><path fill="#333" d="M33-261c38 41 65 92 65 168S71 34 33 75H2C39 34 66-17 66-93S39-220 2-261h31" id="cz"/><g id="ab"><use transform="matrix(0.05555555555555555,0,0,0.05555555555555555,0,0)" xlink:href="#cy"/><use transform="matrix(0.05555555555555555,0,0,0.05555555555555555,6.611111111111111,0)" xlink:href="#cn"/><use transform="matrix(0.05555555555555555,0,0,0.05555555555555555,12.166666666666666,0)" xlink:href="#ck"/><use transform="matrix(0.05555555555555555,0,0,0.05555555555555555,16.555555555555554,0)" xlink:href="#aw"/><use transform="matrix(0.05555555555555555,0,0,0.05555555555555555,27.666666666666664,0)" xlink:href="#cw"/><use transform="matrix(0.05555555555555555,0,0,0.05555555555555555,38.77777777777777,0)" xlink:href="#cu"/><use transform="matrix(0.05555555555555555,0,0,0.05555555555555555,45.388888888888886,0)" xlink:href="#av"/><use transform="matrix(0.05555555555555555,0,0,0.05555555555555555,56.5,0)" xlink:href="#cz"/></g><path fill="#333" d="M30-248c118-7 216 8 213 122C240-48 200 0 122 0H30v-248zM63-27c89 8 146-16 146-99s-60-101-146-95v194" id="cA"/><path fill="#333" d="M190 0L58-211 59 0H30v-248h39L202-35l-2-213h31V0h-41" id="cB"/><g id="ac"><use transform="matrix(0.056172839506172835,0,0,0.056172839506172835,0,0)" xlink:href="#cA"/><use transform="matrix(0.056172839506172835,0,0,0.056172839506172835,14.548765432098763,0)" xlink:href="#cB"/><use transform="matrix(0.056172839506172835,0,0,0.056172839506172835,29.097530864197527,0)" xlink:href="#cB"/></g><path fill="#333" d="M210-169c-67 3-38 105-44 169h-31v-121c0-29-5-50-35-48C34-165 62-65 56 0H25l-1-190h30c1 10-1 24 2 32 10-44 99-50 107 0 11-21 27-35 58-36 85-2 47 119 55 194h-31v-121c0-29-5-49-35-48" id="cC"/><g id="ad"><use transform="matrix(0.056172839506172835,0,0,0.056172839506172835,0,0)" xlink:href="#cC"/><use transform="matrix(0.056172839506172835,0,0,0.056172839506172835,16.795679012345676,0)" xlink:href="#cm"/><use transform="matrix(0.056172839506172835,0,0,0.056172839506172835,28.030246913580243,0)" xlink:href="#ay"/><use transform="matrix(0.056172839506172835,0,0,0.056172839506172835,39.26481481481481,0)" xlink:href="#av"/><use transform="matrix(0.056172839506172835,0,0,0.056172839506172835,50.49938271604938,0)" xlink:href="#cr"/></g><g id="ae"><use transform="matrix(0.056172839506172835,0,0,0.056172839506172835,0,0)" xlink:href="#cs"/><use transform="matrix(0.056172839506172835,0,0,0.056172839506172835,10.11111111111111,0)" xlink:href="#cm"/><use transform="matrix(0.056172839506172835,0,0,0.056172839506172835,21.345679012345677,0)" xlink:href="#ay"/><use transform="matrix(0.056172839506172835,0,0,0.056172839506172835,32.58024691358024,0)" xlink:href="#av"/></g><path fill="#333" d="M206 0h-36l-40-164L89 0H53L-1-190h32L70-26l43-164h34l41 164 42-164h31" id="cD"/><path fill="#333" d="M106-169C34-169 62-67 57 0H25v-261h32l-1 103c12-21 28-36 61-36 89 0 53 116 60 194h-32v-121c2-32-8-49-39-48" id="cE"/><g id="af"><use transform="matrix(0.056172839506172835,0,0,0.056172839506172835,0,0)" xlink:href="#cD"/><use transform="matrix(0.056172839506172835,0,0,0.056172839506172835,14.548765432098763,0)" xlink:href="#ck"/><use transform="matrix(0.056172839506172835,0,0,0.056172839506172835,18.986419753086416,0)" xlink:href="#cl"/><use transform="matrix(0.056172839506172835,0,0,0.056172839506172835,24.6037037037037,0)" xlink:href="#cE"/></g><g id="ag"><use transform="matrix(0.056172839506172835,0,0,0.056172839506172835,0,0)" xlink:href="#ay"/><use transform="matrix(0.056172839506172835,0,0,0.056172839506172835,11.234567901234566,0)" xlink:href="#cj"/><use transform="matrix(0.056172839506172835,0,0,0.056172839506172835,22.469135802469133,0)" xlink:href="#cl"/><use transform="matrix(0.056172839506172835,0,0,0.056172839506172835,28.086419753086417,0)" xlink:href="#cj"/></g><path fill="#333" d="M197 0v-115H63V0H30v-248h33v105h134v-105h34V0h-34" id="cF"/><path fill="#333" d="M137 0h-34L2-248h35l83 218 83-218h36" id="cG"/><path fill="#333" d="M240 0l2-218c-23 76-54 145-80 218h-23L58-218 59 0H30v-248h44l77 211c21-75 51-140 76-211h43V0h-30" id="cH"/><g id="ah"><use transform="matrix(0.056172839506172835,0,0,0.056172839506172835,0,0)" xlink:href="#cF"/><use transform="matrix(0.056172839506172835,0,0,0.056172839506172835,14.548765432098763,0)" xlink:href="#ct"/><use transform="matrix(0.056172839506172835,0,0,0.056172839506172835,28.030246913580243,0)" xlink:href="#cG"/><use transform="matrix(0.056172839506172835,0,0,0.056172839506172835,41.51172839506172,0)" xlink:href="#cH"/></g><path fill="#333" d="M115-194c55 1 70 41 70 98S169 2 115 4C84 4 66-9 55-30l1 105H24l-1-265h31l2 30c10-21 28-34 59-34zm-8 174c40 0 45-34 45-75s-6-73-45-74c-42 0-51 32-51 76 0 43 10 73 51 73" id="cI"/><g id="ai"><use transform="matrix(0.056172839506172835,0,0,0.056172839506172835,0,0)" xlink:href="#ci"/><use transform="matrix(0.056172839506172835,0,0,0.056172839506172835,14.548765432098763,0)" xlink:href="#cm"/><use transform="matrix(0.056172839506172835,0,0,0.056172839506172835,25.78333333333333,0)" xlink:href="#cC"/><use transform="matrix(0.056172839506172835,0,0,0.056172839506172835,42.579012345679004,0)" xlink:href="#cI"/><use transform="matrix(0.056172839506172835,0,0,0.056172839506172835,53.813580246913574,0)" xlink:href="#cm"/><use transform="matrix(0.056172839506172835,0,0,0.056172839506172835,65.04814814814814,0)" xlink:href="#ax"/><use transform="matrix(0.056172839506172835,0,0,0.056172839506172835,76.28271604938271,0)" xlink:href="#av"/><use transform="matrix(0.056172839506172835,0,0,0.056172839506172835,87.51728395061728,0)" xlink:href="#ax"/><use transform="matrix(0.056172839506172835,0,0,0.056172839506172835,98.75185185185185,0)" xlink:href="#cl"/><use transform="matrix(0.056172839506172835,0,0,0.056172839506172835,104.36913580246913,0)" xlink:href="#co"/></g><g id="aj"><use transform="matrix(0.056172839506172835,0,0,0.056172839506172835,0,0)" xlink:href="#ci"/><use transform="matrix(0.056172839506172835,0,0,0.056172839506172835,14.548765432098763,0)" xlink:href="#cm"/><use transform="matrix(0.056172839506172835,0,0,0.056172839506172835,25.78333333333333,0)" xlink:href="#ax"/><use transform="matrix(0.056172839506172835,0,0,0.056172839506172835,37.0179012345679,0)" xlink:href="#cn"/><use transform="matrix(0.056172839506172835,0,0,0.056172839506172835,42.635185185185186,0)" xlink:href="#ck"/><use transform="matrix(0.056172839506172835,0,0,0.056172839506172835,47.07283950617284,0)" xlink:href="#aw"/><use transform="matrix(0.056172839506172835,0,0,0.056172839506172835,58.30740740740742,0)" xlink:href="#cw"/><use transform="matrix(0.056172839506172835,0,0,0.056172839506172835,69.54197530864198,0)" xlink:href="#cu"/><use transform="matrix(0.056172839506172835,0,0,0.056172839506172835,76.22654320987655,0)" xlink:href="#cj"/><use transform="matrix(0.056172839506172835,0,0,0.056172839506172835,87.46111111111112,0)" xlink:href="#cl"/><use transform="matrix(0.056172839506172835,0,0,0.056172839506172835,93.0783950617284,0)" xlink:href="#ck"/><use transform="matrix(0.056172839506172835,0,0,0.056172839506172835,97.51604938271605,0)" xlink:href="#cm"/><use transform="matrix(0.056172839506172835,0,0,0.056172839506172835,108.75061728395062,0)" xlink:href="#ax"/><use transform="matrix(0.056172839506172835,0,0,0.056172839506172835,119.98518518518517,0)" xlink:href="#co"/></g><g id="ak"><use transform="matrix(0.056172839506172835,0,0,0.056172839506172835,0,0)" xlink:href="#cA"/><use transform="matrix(0.056172839506172835,0,0,0.056172839506172835,14.548765432098763,0)" xlink:href="#cj"/><use transform="matrix(0.056172839506172835,0,0,0.056172839506172835,25.78333333333333,0)" xlink:href="#cl"/><use transform="matrix(0.056172839506172835,0,0,0.056172839506172835,31.400617283950616,0)" xlink:href="#cj"/></g></defs></g></svg>